<?xml version="1.0" encoding="UTF-8" standalone="no"?>
<svg width="155.222mm" height="14.1111mm"
 viewBox="0 0 440 40"
 xmlns="http://www.w3.org/2000/svg" xmlns:xlink="http://www.w3.org/1999/xlink"  version="1.2" baseProfile="tiny">
<title>Qt Svg Document</title>
<desc>Generated with Qt</desc>
<defs>
</defs>
<g fill="none" stroke="black" stroke-width="1" fill-rule="evenodd" stroke-linecap="square" stroke-linejoin="bevel" >

<g fill="#ffffff" fill-opacity="1" stroke="none" transform="matrix(1,0,0,1,0,0)"
font-family="Open Sans" font-size="10" font-weight="400" font-style="normal" 
>
<path vector-effect="non-scaling-stroke" fill-rule="evenodd" d="M0,0 L440,0 L440,40 L0,40 L0,0"/>
</g>

<g fill="none" stroke="#000000" stroke-opacity="1" stroke-width="1" stroke-linecap="round" stroke-linejoin="round" transform="matrix(1,0,0,1,0,0)"
font-family="Open Sans" font-size="10" font-weight="400" font-style="normal" 
>
<polyline fill="none" vector-effect="non-scaling-stroke" points="55,5 55,35 " />
<polyline fill="none" vector-effect="non-scaling-stroke" points="385,5 385,35 " />
<polyline fill="none" vector-effect="non-scaling-stroke" points="55,20 385,20 " />
<polyline fill="none" vector-effect="non-scaling-stroke" points="209,28 206,28 " />
<polyline fill="none" vector-effect="non-scaling-stroke" points="203,24 203,26 204,27 206,27 206,28 " />
<polyline fill="none" vector-effect="non-scaling-stroke" points="203,24 203,23 " />
<polyline fill="none" vector-effect="non-scaling-stroke" points="209,23 208,22 207,20 206,20 205,20 203,21 203,23 " />
<polyline fill="none" vector-effect="non-scaling-stroke" points="209,23 209,28 " />
<polyline fill="none" vector-effect="non-scaling-stroke" points="204,34 206,33 207,31 208,30 209,28 " />
<polyline fill="none" vector-effect="non-scaling-stroke" points="213,23 216,20 " />
<polyline fill="none" vector-effect="non-scaling-stroke" points="216,20 216,34 " />
<polyline fill="none" vector-effect="non-scaling-stroke" points="225,21 225,20 224,20 223,20 222,21 " />
<polyline fill="none" vector-effect="non-scaling-stroke" points="222,21 221,23 221,25 221,27 221,28 221,30 222,32 222,33 " />
<polyline fill="none" vector-effect="non-scaling-stroke" points="222,33 223,33 224,33 225,33 " />
<polyline fill="none" vector-effect="non-scaling-stroke" points="225,33 226,31 227,29 227,27 227,25 226,23 225,21 " />
<polyline fill="none" vector-effect="non-scaling-stroke" points="236,21 235,20 234,20 233,20 233,21 " />
<polyline fill="none" vector-effect="non-scaling-stroke" points="233,21 232,23 231,25 231,27 231,28 232,30 233,32 233,33 " />
<polyline fill="none" vector-effect="non-scaling-stroke" points="233,33 233,33 234,33 235,33 236,33 " />
<polyline fill="none" vector-effect="non-scaling-stroke" points="236,33 237,31 237,29 237,27 237,25 237,23 236,21 " />
</g>
</g>
</svg>
