<?xml version="1.0" encoding="UTF-8" standalone="no"?>
<svg width="155.222mm" height="20.4611mm"
 viewBox="0 0 440 58"
 xmlns="http://www.w3.org/2000/svg" xmlns:xlink="http://www.w3.org/1999/xlink"  version="1.2" baseProfile="tiny">
<title>Qt Svg Document</title>
<desc>Generated with Qt</desc>
<defs>
</defs>
<g fill="none" stroke="black" stroke-width="1" fill-rule="evenodd" stroke-linecap="square" stroke-linejoin="bevel" >

<g fill="#ffffff" fill-opacity="1" stroke="none" transform="matrix(1,0,0,1,0,0)"
font-family="Open Sans" font-size="10" font-weight="400" font-style="normal" 
>
<path vector-effect="non-scaling-stroke" fill-rule="evenodd" d="M0,0 L440,0 L440,58 L0,58 L0,0"/>
</g>

<g fill="none" stroke="#000000" stroke-opacity="1" stroke-width="1" stroke-linecap="round" stroke-linejoin="round" transform="matrix(1,0,0,1,0,0)"
font-family="Open Sans" font-size="10" font-weight="400" font-style="normal" 
>
<polyline fill="none" vector-effect="non-scaling-stroke" points="37,12 37,46 " />
<polyline fill="none" vector-effect="non-scaling-stroke" points="401,12 401,46 " />
<polyline fill="none" vector-effect="non-scaling-stroke" points="37,29 401,29 " />
<polyline fill="none" vector-effect="non-scaling-stroke" points="207,46 203,46 " />
<polyline fill="none" vector-effect="non-scaling-stroke" points="200,43 200,45 202,46 203,46 " />
<polyline fill="none" vector-effect="non-scaling-stroke" points="200,43 200,41 " />
<polyline fill="none" vector-effect="non-scaling-stroke" points="207,41 206,40 205,39 204,38 202,38 201,39 200,41 " />
<polyline fill="none" vector-effect="non-scaling-stroke" points="207,41 207,46 " />
<polyline fill="none" vector-effect="non-scaling-stroke" points="202,53 204,52 205,51 206,49 207,47 207,46 " />
<polyline fill="none" vector-effect="non-scaling-stroke" points="212,41 215,38 " />
<polyline fill="none" vector-effect="non-scaling-stroke" points="215,38 215,53 " />
<polyline fill="none" vector-effect="non-scaling-stroke" points="225,39 224,38 223,38 222,38 222,39 " />
<polyline fill="none" vector-effect="non-scaling-stroke" points="222,39 221,41 220,43 220,45 220,47 220,49 221,51 222,52 " />
<polyline fill="none" vector-effect="non-scaling-stroke" points="222,52 222,53 223,53 224,53 225,52 " />
<polyline fill="none" vector-effect="non-scaling-stroke" points="225,52 226,50 226,48 226,46 226,44 226,42 226,41 225,39 " />
<polyline fill="none" vector-effect="non-scaling-stroke" points="236,39 236,38 235,38 234,38 233,39 " />
<polyline fill="none" vector-effect="non-scaling-stroke" points="233,39 232,41 232,43 232,45 232,47 232,49 232,51 233,52 " />
<polyline fill="none" vector-effect="non-scaling-stroke" points="233,52 234,53 235,53 236,53 236,52 " />
<polyline fill="none" vector-effect="non-scaling-stroke" points="236,52 237,50 238,48 238,46 238,44 238,42 237,41 236,39 " />
<polyline fill="none" vector-effect="non-scaling-stroke" points="189,7 190,7 " />
<polyline fill="none" vector-effect="non-scaling-stroke" points="195,10 196,8 196,7 194,6 193,5 191,5 190,6 190,7 " />
<polyline fill="none" vector-effect="non-scaling-stroke" points="195,10 189,20 " />
<polyline fill="none" vector-effect="non-scaling-stroke" points="189,20 196,20 " />
</g>

<g fill="#000000" fill-opacity="1" stroke="none" transform="matrix(1,0,0,1,0,0)"
font-family="Open Sans" font-size="10" font-weight="400" font-style="normal" 
>
<path vector-effect="non-scaling-stroke" fill-rule="evenodd" d="M201.5,7 C201.5,7.27614 201.276,7.5 201,7.5 C200.724,7.5 200.5,7.27614 200.5,7 C200.5,6.72386 200.724,6.5 201,6.5 C201.276,6.5 201.5,6.72386 201.5,7 "/>
</g>

<g fill="none" stroke="#000000" stroke-opacity="1" stroke-width="1" stroke-linecap="round" stroke-linejoin="round" transform="matrix(1,0,0,1,0,0)"
font-family="Open Sans" font-size="10" font-weight="400" font-style="normal" 
>
<polyline fill="none" vector-effect="non-scaling-stroke" points="207,10 207,8 207,7 206,6 204,5 203,5 202,6 201,7 " />
<polyline fill="none" vector-effect="non-scaling-stroke" points="207,10 201,20 " />
<polyline fill="none" vector-effect="non-scaling-stroke" points="201,20 207,20 " />
<polyline fill="none" vector-effect="non-scaling-stroke" points="212,7 213,7 " />
<polyline fill="none" vector-effect="non-scaling-stroke" points="219,10 219,8 219,7 218,6 216,5 214,5 213,6 213,7 " />
<polyline fill="none" vector-effect="non-scaling-stroke" points="219,10 212,20 " />
<polyline fill="none" vector-effect="non-scaling-stroke" points="212,20 219,20 " />
<polyline fill="none" vector-effect="non-scaling-stroke" points="229,20 229,10 " />
<polyline fill="none" vector-effect="non-scaling-stroke" points="224,20 224,10 " />
<polyline fill="none" vector-effect="non-scaling-stroke" points="224,10 231,10 " />
<polyline fill="none" vector-effect="non-scaling-stroke" points="234,12 234,11 233,10 232,10 231,10 " />
<polyline fill="none" vector-effect="non-scaling-stroke" points="234,12 234,20 " />
<polyline fill="none" vector-effect="non-scaling-stroke" points="244,20 244,10 " />
<polyline fill="none" vector-effect="non-scaling-stroke" points="239,20 239,10 " />
<polyline fill="none" vector-effect="non-scaling-stroke" points="239,10 246,10 " />
<polyline fill="none" vector-effect="non-scaling-stroke" points="249,12 249,11 248,10 247,10 246,10 " />
<polyline fill="none" vector-effect="non-scaling-stroke" points="249,12 249,20 " />
</g>
</g>
</svg>
