<?xml version="1.0" encoding="UTF-8" standalone="no"?>
<svg width="77.6111mm" height="20.4611mm"
 viewBox="0 0 220 58"
 xmlns="http://www.w3.org/2000/svg" xmlns:xlink="http://www.w3.org/1999/xlink"  version="1.2" baseProfile="tiny">
<title>Qt Svg Document</title>
<desc>Generated with Qt</desc>
<defs>
</defs>
<g fill="none" stroke="black" stroke-width="1" fill-rule="evenodd" stroke-linecap="square" stroke-linejoin="bevel" >

<g fill="#ffffff" fill-opacity="1" stroke="none" transform="matrix(1,0,0,1,0,0)"
font-family="Open Sans" font-size="10" font-weight="400" font-style="normal" 
>
<path vector-effect="non-scaling-stroke" fill-rule="evenodd" d="M0,0 L220,0 L220,58 L0,58 L0,0"/>
</g>

<g fill="none" stroke="#000000" stroke-opacity="1" stroke-width="1" stroke-linecap="round" stroke-linejoin="round" transform="matrix(1,0,0,1,0,0)"
font-family="Open Sans" font-size="10" font-weight="400" font-style="normal" 
>
<polyline fill="none" vector-effect="non-scaling-stroke" points="18,29 200,29 " />
<polyline fill="none" vector-effect="non-scaling-stroke" points="18,12 18,46 " />
<polyline fill="none" vector-effect="non-scaling-stroke" points="200,12 200,46 " />
<polyline fill="none" vector-effect="non-scaling-stroke" points="84,8 88,5 " />
<polyline fill="none" vector-effect="non-scaling-stroke" points="88,5 88,20 " />
<polyline fill="none" vector-effect="non-scaling-stroke" points="92,8 96,5 " />
<polyline fill="none" vector-effect="non-scaling-stroke" points="96,5 96,20 " />
<polyline fill="none" vector-effect="non-scaling-stroke" points="101,8 104,5 " />
<polyline fill="none" vector-effect="non-scaling-stroke" points="104,5 104,20 " />
<polyline fill="none" vector-effect="non-scaling-stroke" points="114,20 114,10 " />
<polyline fill="none" vector-effect="non-scaling-stroke" points="109,20 109,10 " />
<polyline fill="none" vector-effect="non-scaling-stroke" points="109,10 116,10 " />
<polyline fill="none" vector-effect="non-scaling-stroke" points="119,12 119,11 118,10 117,10 116,10 " />
<polyline fill="none" vector-effect="non-scaling-stroke" points="119,12 119,20 " />
<polyline fill="none" vector-effect="non-scaling-stroke" points="129,20 129,10 " />
<polyline fill="none" vector-effect="non-scaling-stroke" points="124,20 124,10 " />
<polyline fill="none" vector-effect="non-scaling-stroke" points="124,10 131,10 " />
<polyline fill="none" vector-effect="non-scaling-stroke" points="134,12 134,11 133,10 132,10 131,10 " />
<polyline fill="none" vector-effect="non-scaling-stroke" points="134,12 134,20 " />
<polyline fill="none" vector-effect="non-scaling-stroke" points="98,46 95,46 " />
<polyline fill="none" vector-effect="non-scaling-stroke" points="92,43 92,45 93,46 95,46 " />
<polyline fill="none" vector-effect="non-scaling-stroke" points="92,43 92,41 " />
<polyline fill="none" vector-effect="non-scaling-stroke" points="98,41 98,40 97,39 95,38 94,38 92,39 92,41 " />
<polyline fill="none" vector-effect="non-scaling-stroke" points="98,41 98,46 " />
<polyline fill="none" vector-effect="non-scaling-stroke" points="93,53 95,52 97,51 98,49 98,47 98,46 " />
<polyline fill="none" vector-effect="non-scaling-stroke" points="103,41 107,38 " />
<polyline fill="none" vector-effect="non-scaling-stroke" points="107,38 107,53 " />
<polyline fill="none" vector-effect="non-scaling-stroke" points="116,39 116,38 115,38 114,38 113,39 " />
<polyline fill="none" vector-effect="non-scaling-stroke" points="113,39 112,41 112,43 112,45 112,47 112,49 112,51 113,52 " />
<polyline fill="none" vector-effect="non-scaling-stroke" points="113,52 114,53 115,53 116,53 116,52 " />
<polyline fill="none" vector-effect="non-scaling-stroke" points="116,52 117,50 118,48 118,46 118,44 118,42 117,41 116,39 " />
<polyline fill="none" vector-effect="non-scaling-stroke" points="123,41 126,38 " />
<polyline fill="none" vector-effect="non-scaling-stroke" points="126,38 126,53 " />
</g>
</g>
</svg>
