<?xml version="1.0" encoding="UTF-8" standalone="no"?>
<svg width="77.6111mm" height="14.1111mm"
 viewBox="0 0 220 40"
 xmlns="http://www.w3.org/2000/svg" xmlns:xlink="http://www.w3.org/1999/xlink"  version="1.2" baseProfile="tiny">
<title>Qt Svg Document</title>
<desc>Generated with Qt</desc>
<defs>
</defs>
<g fill="none" stroke="black" stroke-width="1" fill-rule="evenodd" stroke-linecap="square" stroke-linejoin="bevel" >

<g fill="#ffffff" fill-opacity="1" stroke="none" transform="matrix(1,0,0,1,0,0)"
font-family="Open Sans" font-size="10" font-weight="400" font-style="normal" 
>
<path vector-effect="non-scaling-stroke" fill-rule="evenodd" d="M0,0 L220,0 L220,40 L0,40 L0,0"/>
</g>

<g fill="none" stroke="#000000" stroke-opacity="1" stroke-width="1" stroke-linecap="round" stroke-linejoin="round" transform="matrix(1,0,0,1,0,0)"
font-family="Open Sans" font-size="10" font-weight="400" font-style="normal" 
>
<polyline fill="none" vector-effect="non-scaling-stroke" points="27,20 192,20 " />
<polyline fill="none" vector-effect="non-scaling-stroke" points="27,5 27,35 " />
<polyline fill="none" vector-effect="non-scaling-stroke" points="192,5 192,35 " />
<polyline fill="none" vector-effect="non-scaling-stroke" points="100,28 97,28 " />
<polyline fill="none" vector-effect="non-scaling-stroke" points="94,24 94,26 95,27 97,27 97,28 " />
<polyline fill="none" vector-effect="non-scaling-stroke" points="94,24 94,23 " />
<polyline fill="none" vector-effect="non-scaling-stroke" points="100,23 99,22 98,20 97,20 96,20 94,21 94,23 " />
<polyline fill="none" vector-effect="non-scaling-stroke" points="100,23 100,28 " />
<polyline fill="none" vector-effect="non-scaling-stroke" points="95,34 97,33 98,31 99,30 100,28 " />
<polyline fill="none" vector-effect="non-scaling-stroke" points="104,23 107,20 " />
<polyline fill="none" vector-effect="non-scaling-stroke" points="107,20 107,34 " />
<polyline fill="none" vector-effect="non-scaling-stroke" points="116,21 116,20 115,20 114,20 113,21 " />
<polyline fill="none" vector-effect="non-scaling-stroke" points="113,21 112,23 112,25 112,27 112,28 112,30 113,32 113,33 " />
<polyline fill="none" vector-effect="non-scaling-stroke" points="113,33 114,33 115,33 116,33 " />
<polyline fill="none" vector-effect="non-scaling-stroke" points="116,33 117,31 118,29 118,27 118,25 117,23 116,21 " />
<polyline fill="none" vector-effect="non-scaling-stroke" points="122,23 125,20 " />
<polyline fill="none" vector-effect="non-scaling-stroke" points="125,20 125,34 " />
</g>
</g>
</svg>
