<?xml version="1.0" encoding="UTF-8" standalone="no"?>
<svg width="40.5694mm" height="20.4611mm"
 viewBox="0 0 115 58"
 xmlns="http://www.w3.org/2000/svg" xmlns:xlink="http://www.w3.org/1999/xlink"  version="1.2" baseProfile="tiny">
<title>Qt Svg Document</title>
<desc>Generated with Qt</desc>
<defs>
</defs>
<g fill="none" stroke="black" stroke-width="1" fill-rule="evenodd" stroke-linecap="square" stroke-linejoin="bevel" >

<g fill="#ffffff" fill-opacity="1" stroke="none" transform="matrix(1,0,0,1,0,0)"
font-family="Open Sans" font-size="10" font-weight="400" font-style="normal" 
>
<path vector-effect="non-scaling-stroke" fill-rule="evenodd" d="M0,0 L115,0 L115,58 L0,58 L0,0"/>
</g>

<g fill="none" stroke="#000000" stroke-opacity="1" stroke-width="1" stroke-linecap="round" stroke-linejoin="round" transform="matrix(1,0,0,1,0,0)"
font-family="Open Sans" font-size="10" font-weight="400" font-style="normal" 
>
<polyline fill="none" vector-effect="non-scaling-stroke" points="9,12 9,46 " />
<polyline fill="none" vector-effect="non-scaling-stroke" points="33,5 26,5 " />
<polyline fill="none" vector-effect="non-scaling-stroke" points="26,5 26,12 " />
<polyline fill="none" vector-effect="non-scaling-stroke" points="26,12 29,12 " />
<polyline fill="none" vector-effect="non-scaling-stroke" points="33,15 32,13 31,12 30,12 29,12 " />
<polyline fill="none" vector-effect="non-scaling-stroke" points="33,15 33,17 " />
<polyline fill="none" vector-effect="non-scaling-stroke" points="29,20 31,19 32,18 33,17 " />
<polyline fill="none" vector-effect="non-scaling-stroke" points="29,20 26,20 " />
<polyline fill="none" vector-effect="non-scaling-stroke" points="38,7 38,5 " />
<polyline fill="none" vector-effect="non-scaling-stroke" points="38,5 44,5 " />
<polyline fill="none" vector-effect="non-scaling-stroke" points="44,5 41,20 " />
<polyline fill="none" vector-effect="non-scaling-stroke" points="49,23 50,20 " />
<polyline fill="none" vector-effect="non-scaling-stroke" points="62,5 55,5 " />
<polyline fill="none" vector-effect="non-scaling-stroke" points="55,5 55,12 " />
<polyline fill="none" vector-effect="non-scaling-stroke" points="55,12 58,12 " />
<polyline fill="none" vector-effect="non-scaling-stroke" points="62,15 61,13 60,12 58,12 " />
<polyline fill="none" vector-effect="non-scaling-stroke" points="62,15 62,17 " />
<polyline fill="none" vector-effect="non-scaling-stroke" points="58,20 60,19 61,18 62,17 " />
<polyline fill="none" vector-effect="non-scaling-stroke" points="58,20 55,20 " />
<polyline fill="none" vector-effect="non-scaling-stroke" points="71,20 71,10 " />
<polyline fill="none" vector-effect="non-scaling-stroke" points="67,20 67,10 " />
<polyline fill="none" vector-effect="non-scaling-stroke" points="67,10 74,10 " />
<polyline fill="none" vector-effect="non-scaling-stroke" points="76,12 76,11 75,10 74,10 " />
<polyline fill="none" vector-effect="non-scaling-stroke" points="76,12 76,20 " />
<polyline fill="none" vector-effect="non-scaling-stroke" points="86,20 86,10 " />
<polyline fill="none" vector-effect="non-scaling-stroke" points="81,20 81,10 " />
<polyline fill="none" vector-effect="non-scaling-stroke" points="81,10 89,10 " />
<polyline fill="none" vector-effect="non-scaling-stroke" points="91,12 91,11 90,10 89,10 " />
<polyline fill="none" vector-effect="non-scaling-stroke" points="91,12 91,20 " />
<polyline fill="none" vector-effect="non-scaling-stroke" points="46,46 43,46 " />
<polyline fill="none" vector-effect="non-scaling-stroke" points="40,43 40,45 41,46 43,46 " />
<polyline fill="none" vector-effect="non-scaling-stroke" points="40,43 40,41 " />
<polyline fill="none" vector-effect="non-scaling-stroke" points="46,41 46,40 45,39 43,38 42,38 40,39 40,41 " />
<polyline fill="none" vector-effect="non-scaling-stroke" points="46,41 46,46 " />
<polyline fill="none" vector-effect="non-scaling-stroke" points="41,53 43,52 45,51 46,49 46,47 46,46 " />
<polyline fill="none" vector-effect="non-scaling-stroke" points="51,41 55,38 " />
<polyline fill="none" vector-effect="non-scaling-stroke" points="55,38 55,53 " />
<polyline fill="none" vector-effect="non-scaling-stroke" points="64,39 64,38 63,38 62,38 61,39 " />
<polyline fill="none" vector-effect="non-scaling-stroke" points="61,39 60,41 60,43 60,45 60,47 60,49 60,51 61,52 " />
<polyline fill="none" vector-effect="non-scaling-stroke" points="61,52 62,53 63,53 64,53 64,52 " />
<polyline fill="none" vector-effect="non-scaling-stroke" points="64,52 65,50 66,48 66,46 66,44 66,42 65,41 64,39 " />
<polyline fill="none" vector-effect="non-scaling-stroke" points="71,41 72,40 " />
<polyline fill="none" vector-effect="non-scaling-stroke" points="77,43 78,41 77,40 76,39 75,38 73,38 72,39 72,40 " />
<polyline fill="none" vector-effect="non-scaling-stroke" points="77,43 71,53 " />
<polyline fill="none" vector-effect="non-scaling-stroke" points="71,53 78,53 " />
<polyline fill="none" vector-effect="non-scaling-stroke" points="104,12 104,46 " />
<polyline fill="none" vector-effect="non-scaling-stroke" points="9,29 104,29 " />
</g>
</g>
</svg>
