<?xml version="1.0" encoding="UTF-8" standalone="no"?>
<svg width="40.5694mm" height="14.1111mm"
 viewBox="0 0 115 40"
 xmlns="http://www.w3.org/2000/svg" xmlns:xlink="http://www.w3.org/1999/xlink"  version="1.2" baseProfile="tiny">
<title>Qt Svg Document</title>
<desc>Generated with Qt</desc>
<defs>
</defs>
<g fill="none" stroke="black" stroke-width="1" fill-rule="evenodd" stroke-linecap="square" stroke-linejoin="bevel" >

<g fill="#ffffff" fill-opacity="1" stroke="none" transform="matrix(1,0,0,1,0,0)"
font-family="Open Sans" font-size="10" font-weight="400" font-style="normal" 
>
<path vector-effect="non-scaling-stroke" fill-rule="evenodd" d="M0,0 L115,0 L115,40 L0,40 L0,0"/>
</g>

<g fill="none" stroke="#000000" stroke-opacity="1" stroke-width="1" stroke-linecap="round" stroke-linejoin="round" transform="matrix(1,0,0,1,0,0)"
font-family="Open Sans" font-size="10" font-weight="400" font-style="normal" 
>
<polyline fill="none" vector-effect="non-scaling-stroke" points="14,5 14,35 " />
<polyline fill="none" vector-effect="non-scaling-stroke" points="100,5 100,35 " />
<polyline fill="none" vector-effect="non-scaling-stroke" points="14,20 100,20 " />
<polyline fill="none" vector-effect="non-scaling-stroke" points="48,28 45,28 " />
<polyline fill="none" vector-effect="non-scaling-stroke" points="42,24 42,26 43,27 45,27 45,28 " />
<polyline fill="none" vector-effect="non-scaling-stroke" points="42,24 42,23 " />
<polyline fill="none" vector-effect="non-scaling-stroke" points="48,23 47,22 46,20 45,20 44,20 42,21 42,23 " />
<polyline fill="none" vector-effect="non-scaling-stroke" points="48,23 48,28 " />
<polyline fill="none" vector-effect="non-scaling-stroke" points="43,34 45,33 46,31 47,30 48,28 " />
<polyline fill="none" vector-effect="non-scaling-stroke" points="52,23 55,20 " />
<polyline fill="none" vector-effect="non-scaling-stroke" points="55,20 55,34 " />
<polyline fill="none" vector-effect="non-scaling-stroke" points="64,21 64,20 63,20 62,20 61,21 " />
<polyline fill="none" vector-effect="non-scaling-stroke" points="61,21 60,23 60,25 60,27 60,28 60,30 61,32 61,33 " />
<polyline fill="none" vector-effect="non-scaling-stroke" points="61,33 62,33 63,33 64,33 " />
<polyline fill="none" vector-effect="non-scaling-stroke" points="64,33 65,31 66,29 66,27 66,25 65,23 64,21 " />
<polyline fill="none" vector-effect="non-scaling-stroke" points="70,22 71,22 " />
<polyline fill="none" vector-effect="non-scaling-stroke" points="76,24 76,23 76,22 75,21 74,20 72,20 71,21 " />
<polyline fill="none" vector-effect="non-scaling-stroke" points="76,24 70,34 " />
<polyline fill="none" vector-effect="non-scaling-stroke" points="70,34 76,34 " />
</g>
</g>
</svg>
