<?xml version="1.0" encoding="UTF-8" standalone="no"?>
<svg width="39.1583mm" height="14.1111mm"
 viewBox="0 0 111 40"
 xmlns="http://www.w3.org/2000/svg" xmlns:xlink="http://www.w3.org/1999/xlink"  version="1.2" baseProfile="tiny">
<title>Qt Svg Document</title>
<desc>Generated with Qt</desc>
<defs>
</defs>
<g fill="none" stroke="black" stroke-width="1" fill-rule="evenodd" stroke-linecap="square" stroke-linejoin="bevel" >

<g fill="#ffffff" fill-opacity="1" stroke="none" transform="matrix(1,0,0,1,0,0)"
font-family="Open Sans" font-size="10" font-weight="400" font-style="normal" 
>
<path vector-effect="non-scaling-stroke" fill-rule="evenodd" d="M0,0 L111,0 L111,40 L0,40 L0,0"/>
</g>

<g fill="none" stroke="#000000" stroke-opacity="1" stroke-width="1" stroke-linecap="round" stroke-linejoin="round" transform="matrix(1,0,0,1,0,0)"
font-family="Open Sans" font-size="10" font-weight="400" font-style="normal" 
>
<polyline fill="none" vector-effect="non-scaling-stroke" points="13,20 96,20 " />
<polyline fill="none" vector-effect="non-scaling-stroke" points="13,5 13,35 " />
<polyline fill="none" vector-effect="non-scaling-stroke" points="96,5 96,35 " />
<polyline fill="none" vector-effect="non-scaling-stroke" points="43,28 40,28 " />
<polyline fill="none" vector-effect="non-scaling-stroke" points="37,24 38,26 39,27 40,27 40,28 " />
<polyline fill="none" vector-effect="non-scaling-stroke" points="37,24 37,23 " />
<polyline fill="none" vector-effect="non-scaling-stroke" points="43,23 43,22 42,20 41,20 39,20 38,21 37,23 " />
<polyline fill="none" vector-effect="non-scaling-stroke" points="43,23 43,28 " />
<polyline fill="none" vector-effect="non-scaling-stroke" points="39,34 41,33 42,31 43,30 43,28 " />
<polyline fill="none" vector-effect="non-scaling-stroke" points="48,23 51,20 " />
<polyline fill="none" vector-effect="non-scaling-stroke" points="51,20 51,34 " />
<polyline fill="none" vector-effect="non-scaling-stroke" points="60,21 59,20 58,20 57,20 57,21 " />
<polyline fill="none" vector-effect="non-scaling-stroke" points="57,21 56,23 56,25 55,27 55,28 56,30 57,32 57,33 " />
<polyline fill="none" vector-effect="non-scaling-stroke" points="57,33 58,33 59,33 59,33 60,33 " />
<polyline fill="none" vector-effect="non-scaling-stroke" points="60,33 61,31 61,29 61,27 61,25 61,23 60,21 " />
<polyline fill="none" vector-effect="non-scaling-stroke" points="66,20 69,20 " />
<polyline fill="none" vector-effect="non-scaling-stroke" points="69,26 70,26 71,25 72,23 72,22 71,21 69,20 " />
<polyline fill="none" vector-effect="non-scaling-stroke" points="67,26 69,26 " />
<polyline fill="none" vector-effect="non-scaling-stroke" points="72,29 72,28 70,26 69,26 " />
<polyline fill="none" vector-effect="non-scaling-stroke" points="72,29 72,30 " />
<polyline fill="none" vector-effect="non-scaling-stroke" points="69,34 70,33 71,32 72,31 72,30 " />
<polyline fill="none" vector-effect="non-scaling-stroke" points="69,34 66,34 " />
</g>
</g>
</svg>
