<?xml version="1.0" encoding="UTF-8" standalone="no"?>
<svg width="19.4028mm" height="14.1111mm"
 viewBox="0 0 55 40"
 xmlns="http://www.w3.org/2000/svg" xmlns:xlink="http://www.w3.org/1999/xlink"  version="1.2" baseProfile="tiny">
<title>Qt Svg Document</title>
<desc>Generated with Qt</desc>
<defs>
</defs>
<g fill="none" stroke="black" stroke-width="1" fill-rule="evenodd" stroke-linecap="square" stroke-linejoin="bevel" >

<g fill="#ffffff" fill-opacity="1" stroke="none" transform="matrix(1,0,0,1,0,0)"
font-family="Droid Sans" font-size="10" font-weight="400" font-style="normal" 
>
<path vector-effect="non-scaling-stroke" fill-rule="evenodd" d="M0,0 L55,0 L55,40 L0,40 L0,0"/>
</g>

<g fill="none" stroke="#000000" stroke-opacity="1" stroke-width="1" stroke-linecap="round" stroke-linejoin="round" transform="matrix(1,0,0,1,0,0)"
font-family="Droid Sans" font-size="10" font-weight="400" font-style="normal" 
>
<polyline fill="none" vector-effect="non-scaling-stroke" points="6,5 6,35 " />
<polyline fill="none" vector-effect="non-scaling-stroke" points="6,20 47,20 " />
<polyline fill="none" vector-effect="non-scaling-stroke" points="47,5 47,35 " />
<polyline fill="none" vector-effect="non-scaling-stroke" points="15,28 12,28 " />
<polyline fill="none" vector-effect="non-scaling-stroke" points="9,24 9,26 10,27 11,27 12,28 " />
<polyline fill="none" vector-effect="non-scaling-stroke" points="9,24 9,23 " />
<polyline fill="none" vector-effect="non-scaling-stroke" points="15,23 14,22 13,20 12,20 10,20 9,21 9,23 " />
<polyline fill="none" vector-effect="non-scaling-stroke" points="15,23 15,28 " />
<polyline fill="none" vector-effect="non-scaling-stroke" points="10,34 12,33 13,31 14,30 15,28 " />
<polyline fill="none" vector-effect="non-scaling-stroke" points="19,23 22,20 " />
<polyline fill="none" vector-effect="non-scaling-stroke" points="22,20 22,34 " />
<polyline fill="none" vector-effect="non-scaling-stroke" points="31,21 30,20 29,20 29,20 28,21 " />
<polyline fill="none" vector-effect="non-scaling-stroke" points="28,21 27,23 27,25 27,27 27,28 27,30 28,32 28,33 " />
<polyline fill="none" vector-effect="non-scaling-stroke" points="28,33 29,33 30,33 31,33 " />
<polyline fill="none" vector-effect="non-scaling-stroke" points="31,33 32,31 32,29 33,27 33,25 32,23 31,21 " />
<polyline fill="none" vector-effect="non-scaling-stroke" points="40,20 37,30 " />
<polyline fill="none" vector-effect="non-scaling-stroke" points="37,30 45,30 " />
<polyline fill="none" vector-effect="non-scaling-stroke" points="42,28 42,34 " />
</g>
</g>
</svg>
