<?xml version="1.0" encoding="UTF-8" standalone="no"?>
<svg width="77.6111mm" height="14.1111mm"
 viewBox="0 0 220 40"
 xmlns="http://www.w3.org/2000/svg" xmlns:xlink="http://www.w3.org/1999/xlink"  version="1.2" baseProfile="tiny">
<title>Qt Svg Document</title>
<desc>Generated with Qt</desc>
<defs>
</defs>
<g fill="none" stroke="black" stroke-width="1" fill-rule="evenodd" stroke-linecap="square" stroke-linejoin="bevel" >

<g fill="#ffffff" fill-opacity="1" stroke="none" transform="matrix(1,0,0,1,0,0)"
font-family="Open Sans" font-size="10" font-weight="400" font-style="normal" 
>
<path vector-effect="non-scaling-stroke" fill-rule="evenodd" d="M0,0 L220,0 L220,40 L0,40 L0,0"/>
</g>

<g fill="#000000" fill-opacity="1" stroke="none" transform="matrix(1,0,0,1,0,0)"
font-family="Open Sans" font-size="10" font-weight="400" font-style="normal" 
>
<path vector-effect="non-scaling-stroke" fill-rule="evenodd" d="M127,11 C127,12.6569 125.657,14 124,14 C122.343,14 121,12.6569 121,11 C121,9.34315 122.343,8 124,8 C125.657,8 127,9.34315 127,11 "/>
</g>

<g fill="#000000" fill-opacity="1" stroke="none" transform="matrix(1,0,0,1,0,0)"
font-family="Open Sans" font-size="10" font-weight="400" font-style="normal" 
>
<path vector-effect="non-scaling-stroke" fill-rule="evenodd" d="M96,11 C96,12.6569 94.6569,14 93,14 C91.3431,14 90,12.6569 90,11 C90,9.34315 91.3431,8 93,8 C94.6569,8 96,9.34315 96,11 "/>
</g>

<g fill="#000000" fill-opacity="1" stroke="#000000" stroke-opacity="1" stroke-width="1" stroke-linecap="round" stroke-linejoin="round" transform="matrix(1,0,0,1,0,0)"
font-family="Open Sans" font-size="10" font-weight="400" font-style="normal" 
>
<polyline fill="none" vector-effect="non-scaling-stroke" points="27,20 192,20 " />
<polyline fill="none" vector-effect="non-scaling-stroke" points="27,5 27,35 " />
<polyline fill="none" vector-effect="non-scaling-stroke" points="192,5 192,35 " />
<polyline fill="none" vector-effect="non-scaling-stroke" points="132,5 87,5 " />
<polyline fill="none" vector-effect="non-scaling-stroke" points="87,5 87,20 " />
<polyline fill="none" vector-effect="non-scaling-stroke" points="87,20 132,20 " />
<polyline fill="none" vector-effect="non-scaling-stroke" points="132,20 132,5 " />
<polyline fill="none" vector-effect="non-scaling-stroke" points="110,6 110,14 " />
<polyline fill="none" vector-effect="non-scaling-stroke" points="110,14 117,14 " />
<polyline fill="none" vector-effect="non-scaling-stroke" points="117,14 117,6 " />
<polyline fill="none" vector-effect="non-scaling-stroke" points="117,6 110,6 " />
<polyline fill="none" vector-effect="non-scaling-stroke" points="102,6 102,14 " />
<polyline fill="none" vector-effect="non-scaling-stroke" points="102,14 110,14 " />
<polyline fill="none" vector-effect="non-scaling-stroke" points="110,14 110,6 " />
<polyline fill="none" vector-effect="non-scaling-stroke" points="110,6 102,6 " />
<polyline fill="none" vector-effect="non-scaling-stroke" points="96,11 96,10 95,8 93,8 92,8 91,9 90,11 90,12 91,13 92,14 94,14 95,13 96,12 96,11 " />
<polyline fill="none" vector-effect="non-scaling-stroke" points="128,11 127,10 126,8 125,8 123,8 122,9 122,11 122,12 123,13 124,14 125,14 127,13 127,12 128,11 " />
<polyline fill="none" vector-effect="non-scaling-stroke" points="98,28 95,28 " />
<polyline fill="none" vector-effect="non-scaling-stroke" points="92,24 93,26 94,27 95,27 95,28 " />
<polyline fill="none" vector-effect="non-scaling-stroke" points="92,24 92,23 " />
<polyline fill="none" vector-effect="non-scaling-stroke" points="98,23 98,22 97,20 95,20 94,20 93,21 92,23 " />
<polyline fill="none" vector-effect="non-scaling-stroke" points="98,23 98,28 " />
<polyline fill="none" vector-effect="non-scaling-stroke" points="94,34 96,33 97,31 98,30 98,28 " />
<polyline fill="none" vector-effect="non-scaling-stroke" points="103,23 106,20 " />
<polyline fill="none" vector-effect="non-scaling-stroke" points="106,20 106,34 " />
<polyline fill="none" vector-effect="non-scaling-stroke" points="115,21 114,20 113,20 112,20 112,21 " />
<polyline fill="none" vector-effect="non-scaling-stroke" points="112,21 111,23 110,25 110,27 110,28 111,30 112,32 112,33 " />
<polyline fill="none" vector-effect="non-scaling-stroke" points="112,33 112,33 113,33 114,33 115,33 " />
<polyline fill="none" vector-effect="non-scaling-stroke" points="115,33 116,31 116,29 116,27 116,25 116,23 115,21 " />
<polyline fill="none" vector-effect="non-scaling-stroke" points="127,30 127,29 " />
<polyline fill="none" vector-effect="non-scaling-stroke" points="127,29 126,28 125,26 124,26 123,26 121,27 121,29 " />
<polyline fill="none" vector-effect="non-scaling-stroke" points="121,29 121,30 " />
<polyline fill="none" vector-effect="non-scaling-stroke" points="121,30 121,32 122,33 124,33 125,33 126,32 127,31 127,30 " />
<polyline fill="none" vector-effect="non-scaling-stroke" points="124,26 125,26 126,25 127,23 126,22 126,21 124,20 " />
<polyline fill="none" vector-effect="non-scaling-stroke" points="124,20 122,20 121,21 121,23 121,24 122,25 123,26 124,26 " />
</g>
</g>
</svg>
