<?xml version="1.0" encoding="UTF-8" standalone="no"?>
<svg width="40.5694mm" height="14.1111mm"
 viewBox="0 0 115 40"
 xmlns="http://www.w3.org/2000/svg" xmlns:xlink="http://www.w3.org/1999/xlink"  version="1.2" baseProfile="tiny">
<title>Qt Svg Document</title>
<desc>Generated with Qt</desc>
<defs>
</defs>
<g fill="none" stroke="black" stroke-width="1" fill-rule="evenodd" stroke-linecap="square" stroke-linejoin="bevel" >

<g fill="#ffffff" fill-opacity="1" stroke="none" transform="matrix(1,0,0,1,0,0)"
font-family="Open Sans" font-size="10" font-weight="400" font-style="normal" 
>
<path vector-effect="non-scaling-stroke" fill-rule="evenodd" d="M0,0 L115,0 L115,40 L0,40 L0,0"/>
</g>

<g fill="none" stroke="#000000" stroke-opacity="1" stroke-width="1" stroke-linecap="round" stroke-linejoin="round" transform="matrix(1,0,0,1,0,0)"
font-family="Open Sans" font-size="10" font-weight="400" font-style="normal" 
>
<polyline fill="none" vector-effect="non-scaling-stroke" points="14,20 100,20 " />
<polyline fill="none" vector-effect="non-scaling-stroke" points="100,20 100,35 " />
<polyline fill="none" vector-effect="non-scaling-stroke" points="100,20 100,5 " />
<polyline fill="none" vector-effect="non-scaling-stroke" points="14,5 14,20 " />
<polyline fill="none" vector-effect="non-scaling-stroke" points="14,20 14,35 " />
<polyline fill="none" vector-effect="non-scaling-stroke" points="100,5 93,5 " />
<polyline fill="none" vector-effect="non-scaling-stroke" points="100,35 93,35 " />
<polyline fill="none" vector-effect="non-scaling-stroke" points="47,28 44,28 " />
<polyline fill="none" vector-effect="non-scaling-stroke" points="41,24 42,26 43,27 44,27 44,28 " />
<polyline fill="none" vector-effect="non-scaling-stroke" points="41,24 41,23 " />
<polyline fill="none" vector-effect="non-scaling-stroke" points="47,23 47,22 46,20 45,20 43,20 42,21 41,23 " />
<polyline fill="none" vector-effect="non-scaling-stroke" points="47,23 47,28 " />
<polyline fill="none" vector-effect="non-scaling-stroke" points="43,34 45,33 46,31 47,30 47,28 " />
<polyline fill="none" vector-effect="non-scaling-stroke" points="52,23 55,20 " />
<polyline fill="none" vector-effect="non-scaling-stroke" points="55,20 55,34 " />
<polyline fill="none" vector-effect="non-scaling-stroke" points="59,23 62,20 " />
<polyline fill="none" vector-effect="non-scaling-stroke" points="62,20 62,34 " />
<polyline fill="none" vector-effect="non-scaling-stroke" points="67,26 70,26 " />
<polyline fill="none" vector-effect="non-scaling-stroke" points="73,29 73,28 71,26 70,26 " />
<polyline fill="none" vector-effect="non-scaling-stroke" points="73,29 73,30 " />
<polyline fill="none" vector-effect="non-scaling-stroke" points="67,30 67,32 68,33 70,33 71,33 72,32 73,31 73,30 " />
<polyline fill="none" vector-effect="non-scaling-stroke" points="67,30 67,26 " />
<polyline fill="none" vector-effect="non-scaling-stroke" points="71,20 70,21 68,22 67,24 67,26 " />
</g>
</g>
</svg>
