<?xml version="1.0" encoding="UTF-8" standalone="no"?>
<svg width="100.894mm" height="51.8583mm"
 viewBox="0 0 286 147"
 xmlns="http://www.w3.org/2000/svg" xmlns:xlink="http://www.w3.org/1999/xlink"  version="1.2" baseProfile="tiny">
<title>Qt Svg Document</title>
<desc>Generated with Qt</desc>
<defs>
</defs>
<g fill="none" stroke="black" stroke-width="1" fill-rule="evenodd" stroke-linecap="square" stroke-linejoin="bevel" >

<g fill="#ffffff" fill-opacity="1" stroke="none" transform="matrix(1,0,0,1,0,0)"
font-family="Open Sans" font-size="10" font-weight="400" font-style="normal" 
>
<path vector-effect="non-scaling-stroke" fill-rule="evenodd" d="M0,0 L286,0 L286,147 L0,147 L0,0"/>
</g>

<g fill="none" stroke="#000000" stroke-opacity="1" stroke-width="1" stroke-linecap="round" stroke-linejoin="round" transform="matrix(1,0,0,1,0,0)"
font-family="Open Sans" font-size="10" font-weight="400" font-style="normal" 
>
<polyline fill="none" vector-effect="non-scaling-stroke" points="263,129 261,128 260,126 258,125 257,124 256,122 254,121 253,119 251,118 250,117 248,115 247,114 245,113 244,111 242,110 241,109 239,108 238,106 236,105 234,104 233,102 231,101 230,100 228,99 227,98 225,96 223,95 222,94 220,93 219,92 217,90 215,89 214,88 212,87 210,86 209,85 207,84 205,83 204,81 202,80 200,79 199,78 197,77 195,76 194,75 192,74 190,73 188,72 187,71 185,70 183,69 181,68 180,67 178,66 176,65 174,64 173,63 171,63 169,62 167,61 165,60 164,59 162,58 160,57 158,56 156,56 155,55 153,54 151,53 149,52 147,52 145,51 143,50 142,49 140,49 138,48 136,47 134,47 132,46 130,45 128,44 127,44 125,43 123,43 121,42 119,41 117,41 115,40 113,39 111,39 109,38 108,38 106,37 104,37 102,36 100,36 98,35 96,35 94,34 92,34 90,33 88,33 86,32 84,32 82,32 80,31 78,31 76,30 74,30 72,30 71,29 69,29 67,29 65,28 63,28 61,28 59,27 57,27 55,27 53,27 51,26 49,26 47,26 45,26 43,26 41,25 39,25 37,25 35,25 33,25 31,25 29,25 27,24 25,24 23,24 21,24 19,24 17,24 15,24 13,24 11,24 9,24 " />
<polyline fill="none" vector-effect="non-scaling-stroke" points="9,5 9,43 " />
<polyline fill="none" vector-effect="non-scaling-stroke" points="250,142 263,129 " />
<polyline fill="none" vector-effect="non-scaling-stroke" points="263,129 276,116 " />
<polyline fill="none" vector-effect="non-scaling-stroke" points="130,55 126,53 " />
<polyline fill="none" vector-effect="non-scaling-stroke" points="124,48 124,50 125,52 126,53 " />
<polyline fill="none" vector-effect="non-scaling-stroke" points="124,48 125,47 " />
<polyline fill="none" vector-effect="non-scaling-stroke" points="132,49 132,48 132,46 130,45 128,44 127,45 125,46 125,47 " />
<polyline fill="none" vector-effect="non-scaling-stroke" points="132,49 130,55 " />
<polyline fill="none" vector-effect="non-scaling-stroke" points="122,59 124,59 126,59 127,58 129,56 130,55 " />
<polyline fill="none" vector-effect="non-scaling-stroke" points="137,52 142,50 " />
<polyline fill="none" vector-effect="non-scaling-stroke" points="142,50 136,65 " />
<polyline fill="none" vector-effect="non-scaling-stroke" points="146,54 147,54 " />
<polyline fill="none" vector-effect="non-scaling-stroke" points="151,60 153,58 153,56 152,54 151,53 149,53 147,53 147,54 " />
<polyline fill="none" vector-effect="non-scaling-stroke" points="151,60 141,67 " />
<polyline fill="none" vector-effect="non-scaling-stroke" points="141,67 148,70 " />
<polyline fill="none" vector-effect="non-scaling-stroke" points="164,60 164,59 163,58 161,58 " />
<polyline fill="none" vector-effect="non-scaling-stroke" points="161,58 159,60 158,61 157,63 156,65 155,67 155,69 155,71 155,72 " />
<polyline fill="none" vector-effect="non-scaling-stroke" points="155,72 155,73 156,74 158,74 158,73 " />
<polyline fill="none" vector-effect="non-scaling-stroke" points="158,73 160,72 161,71 162,69 163,67 164,65 164,63 164,61 164,60 " />
</g>
</g>
</svg>
