<?xml version="1.0" encoding="UTF-8" standalone="no"?>
<svg width="18.6972mm" height="15.1694mm"
 viewBox="0 0 53 43"
 xmlns="http://www.w3.org/2000/svg" xmlns:xlink="http://www.w3.org/1999/xlink"  version="1.2" baseProfile="tiny">
<title>Qt Svg Document</title>
<desc>Generated with Qt</desc>
<defs>
</defs>
<g fill="none" stroke="black" stroke-width="1" fill-rule="evenodd" stroke-linecap="square" stroke-linejoin="bevel" >

<g fill="#ffffff" fill-opacity="1" stroke="none" transform="matrix(1,0,0,1,0,0)"
font-family="Open Sans" font-size="10" font-weight="400" font-style="normal" 
>
<path vector-effect="non-scaling-stroke" fill-rule="evenodd" d="M0,0 L53,0 L53,43 L0,43 L0,0"/>
</g>

<g fill="none" stroke="#000000" stroke-opacity="1" stroke-width="1" stroke-linecap="round" stroke-linejoin="round" transform="matrix(1,0,0,1,0,0)"
font-family="Open Sans" font-size="10" font-weight="400" font-style="normal" 
>
<polyline fill="none" vector-effect="non-scaling-stroke" points="6,6 6,36 " />
<polyline fill="none" vector-effect="non-scaling-stroke" points="44,24 42,23 40,23 38,23 36,23 34,22 32,22 30,22 28,22 26,22 24,22 22,21 20,21 18,21 16,21 14,21 12,21 10,21 8,21 6,21 " />
<polyline fill="none" vector-effect="non-scaling-stroke" points="46,8 44,24 " />
<polyline fill="none" vector-effect="non-scaling-stroke" points="44,24 42,39 " />
<polyline fill="none" vector-effect="non-scaling-stroke" points="13,29 10,28 " />
<polyline fill="none" vector-effect="non-scaling-stroke" points="7,25 8,27 9,28 10,28 " />
<polyline fill="none" vector-effect="non-scaling-stroke" points="7,25 7,24 " />
<polyline fill="none" vector-effect="non-scaling-stroke" points="14,24 13,22 12,21 11,21 9,21 8,22 8,23 7,24 " />
<polyline fill="none" vector-effect="non-scaling-stroke" points="14,24 13,29 " />
<polyline fill="none" vector-effect="non-scaling-stroke" points="8,34 10,34 12,32 13,31 13,29 " />
<polyline fill="none" vector-effect="non-scaling-stroke" points="18,24 21,21 " />
<polyline fill="none" vector-effect="non-scaling-stroke" points="21,21 21,35 " />
<polyline fill="none" vector-effect="non-scaling-stroke" points="26,24 26,23 " />
<polyline fill="none" vector-effect="non-scaling-stroke" points="31,27 32,25 32,24 31,23 29,22 28,22 27,23 26,23 " />
<polyline fill="none" vector-effect="non-scaling-stroke" points="31,27 25,35 " />
<polyline fill="none" vector-effect="non-scaling-stroke" points="25,35 31,36 " />
<polyline fill="none" vector-effect="non-scaling-stroke" points="37,22 40,23 " />
<polyline fill="none" vector-effect="non-scaling-stroke" points="39,29 41,28 42,27 43,26 42,25 42,23 40,23 " />
<polyline fill="none" vector-effect="non-scaling-stroke" points="38,29 39,29 " />
<polyline fill="none" vector-effect="non-scaling-stroke" points="42,32 42,30 41,29 40,29 39,29 " />
<polyline fill="none" vector-effect="non-scaling-stroke" points="42,32 42,33 " />
<polyline fill="none" vector-effect="non-scaling-stroke" points="39,36 40,36 41,35 42,34 42,33 " />
<polyline fill="none" vector-effect="non-scaling-stroke" points="39,36 36,36 " />
</g>
</g>
</svg>
