<?xml version="1.0" encoding="UTF-8" standalone="no"?>
<svg width="43.0389mm" height="19.4028mm"
 viewBox="0 0 122 55"
 xmlns="http://www.w3.org/2000/svg" xmlns:xlink="http://www.w3.org/1999/xlink"  version="1.2" baseProfile="tiny">
<title>Qt Svg Document</title>
<desc>Generated with Qt</desc>
<defs>
</defs>
<g fill="none" stroke="black" stroke-width="1" fill-rule="evenodd" stroke-linecap="square" stroke-linejoin="bevel" >

<g fill="#ffffff" fill-opacity="1" stroke="none" transform="matrix(1,0,0,1,0,0)"
font-family="Droid Sans" font-size="10" font-weight="400" font-style="normal" 
>
<path vector-effect="non-scaling-stroke" fill-rule="evenodd" d="M0,0 L122,0 L122,55 L0,55 L0,0"/>
</g>

<g fill="none" stroke="#000000" stroke-opacity="1" stroke-width="1" stroke-linecap="round" stroke-linejoin="round" transform="matrix(1,0,0,1,0,0)"
font-family="Droid Sans" font-size="10" font-weight="400" font-style="normal" 
>
<polyline fill="none" vector-effect="non-scaling-stroke" points="10,38 10,6 " />
<polyline fill="none" vector-effect="non-scaling-stroke" points="106,35 104,34 102,34 100,33 98,33 96,32 94,32 92,31 91,31 89,30 87,30 85,30 83,29 81,29 79,28 77,28 75,28 73,27 71,27 69,27 67,26 65,26 63,26 61,26 59,25 57,25 55,25 53,25 51,24 49,24 47,24 45,24 43,23 41,23 39,23 37,23 35,23 33,23 31,23 29,22 27,22 25,22 23,22 21,22 19,22 17,22 15,22 13,22 11,22 10,22 " />
<polyline fill="none" vector-effect="non-scaling-stroke" points="110,19 102,51 " />
<polyline fill="none" vector-effect="non-scaling-stroke" points="45,32 42,31 " />
<polyline fill="none" vector-effect="non-scaling-stroke" points="39,28 39,29 40,31 42,31 " />
<polyline fill="none" vector-effect="non-scaling-stroke" points="39,28 39,26 " />
<polyline fill="none" vector-effect="non-scaling-stroke" points="46,27 46,25 45,24 43,23 42,23 40,24 39,26 " />
<polyline fill="none" vector-effect="non-scaling-stroke" points="46,27 45,32 " />
<polyline fill="none" vector-effect="non-scaling-stroke" points="39,38 41,37 43,36 44,34 45,33 45,32 " />
<polyline fill="none" vector-effect="non-scaling-stroke" points="51,27 54,25 " />
<polyline fill="none" vector-effect="non-scaling-stroke" points="54,25 52,39 " />
<polyline fill="none" vector-effect="non-scaling-stroke" points="59,28 59,27 " />
<polyline fill="none" vector-effect="non-scaling-stroke" points="65,31 65,29 65,28 64,27 63,26 61,26 60,27 59,27 " />
<polyline fill="none" vector-effect="non-scaling-stroke" points="65,31 57,40 " />
<polyline fill="none" vector-effect="non-scaling-stroke" points="57,40 64,41 " />
<polyline fill="none" vector-effect="non-scaling-stroke" points="70,28 71,27 " />
<polyline fill="none" vector-effect="non-scaling-stroke" points="71,27 77,28 " />
<polyline fill="none" vector-effect="non-scaling-stroke" points="77,28 72,42 " />
</g>
</g>
</svg>
