<?xml version="1.0" encoding="UTF-8" standalone="no"?>
<svg width="21.8722mm" height="15.5222mm"
 viewBox="0 0 62 44"
 xmlns="http://www.w3.org/2000/svg" xmlns:xlink="http://www.w3.org/1999/xlink"  version="1.2" baseProfile="tiny">
<title>Qt Svg Document</title>
<desc>Generated with Qt</desc>
<defs>
</defs>
<g fill="none" stroke="black" stroke-width="1" fill-rule="evenodd" stroke-linecap="square" stroke-linejoin="bevel" >

<g fill="#ffffff" fill-opacity="1" stroke="none" transform="matrix(1,0,0,1,0,0)"
font-family="Droid Sans" font-size="10" font-weight="400" font-style="normal" 
>
<path vector-effect="non-scaling-stroke" fill-rule="evenodd" d="M0,0 L62,0 L62,44 L0,44 L0,0"/>
</g>

<g fill="none" stroke="#000000" stroke-opacity="1" stroke-width="1" stroke-linecap="round" stroke-linejoin="round" transform="matrix(1,0,0,1,0,0)"
font-family="Droid Sans" font-size="10" font-weight="400" font-style="normal" 
>
<polyline fill="none" vector-effect="non-scaling-stroke" points="7,37 7,5 " />
<polyline fill="none" vector-effect="non-scaling-stroke" points="53,24 51,24 49,24 47,23 45,23 43,23 41,23 39,22 37,22 35,22 33,22 31,22 29,22 27,22 25,21 23,21 21,21 19,21 17,21 15,21 13,21 11,21 9,21 7,21 " />
<polyline fill="none" vector-effect="non-scaling-stroke" points="51,39 55,9 " />
<polyline fill="none" vector-effect="non-scaling-stroke" points="18,29 15,29 " />
<polyline fill="none" vector-effect="non-scaling-stroke" points="12,25 12,27 13,28 14,29 15,29 " />
<polyline fill="none" vector-effect="non-scaling-stroke" points="12,25 12,24 " />
<polyline fill="none" vector-effect="non-scaling-stroke" points="18,24 18,23 17,21 15,21 14,21 13,22 12,23 12,24 " />
<polyline fill="none" vector-effect="non-scaling-stroke" points="18,24 18,29 " />
<polyline fill="none" vector-effect="non-scaling-stroke" points="13,35 15,34 16,33 17,31 18,29 " />
<polyline fill="none" vector-effect="non-scaling-stroke" points="23,24 26,21 " />
<polyline fill="none" vector-effect="non-scaling-stroke" points="26,21 25,35 " />
<polyline fill="none" vector-effect="non-scaling-stroke" points="31,24 31,23 " />
<polyline fill="none" vector-effect="non-scaling-stroke" points="36,27 37,25 36,24 36,23 34,22 33,22 31,23 " />
<polyline fill="none" vector-effect="non-scaling-stroke" points="36,27 30,36 " />
<polyline fill="none" vector-effect="non-scaling-stroke" points="30,36 36,36 " />
<polyline fill="none" vector-effect="non-scaling-stroke" points="47,34 47,32 " />
<polyline fill="none" vector-effect="non-scaling-stroke" points="47,32 47,31 46,30 45,29 43,29 42,30 41,31 41,32 " />
<polyline fill="none" vector-effect="non-scaling-stroke" points="41,32 41,33 " />
<polyline fill="none" vector-effect="non-scaling-stroke" points="41,33 41,35 42,36 44,37 45,36 46,36 47,34 " />
<polyline fill="none" vector-effect="non-scaling-stroke" points="44,29 46,29 47,28 48,26 47,25 47,23 45,23 " />
<polyline fill="none" vector-effect="non-scaling-stroke" points="45,23 43,23 42,24 41,25 42,27 42,28 44,29 " />
</g>
</g>
</svg>
