<?xml version="1.0" encoding="UTF-8" standalone="no"?>
<svg width="143.228mm" height="50.8mm"
 viewBox="0 0 406 144"
 xmlns="http://www.w3.org/2000/svg" xmlns:xlink="http://www.w3.org/1999/xlink"  version="1.2" baseProfile="tiny">
<title>Qt Svg Document</title>
<desc>Generated with Qt</desc>
<defs>
</defs>
<g fill="none" stroke="black" stroke-width="1" fill-rule="evenodd" stroke-linecap="square" stroke-linejoin="bevel" >

<g fill="#ffffff" fill-opacity="1" stroke="none" transform="matrix(1,0,0,1,0,0)"
font-family="Droid Sans" font-size="10" font-weight="400" font-style="normal" 
>
<path vector-effect="non-scaling-stroke" fill-rule="evenodd" d="M0,0 L406,0 L406,144 L0,144 L0,0"/>
</g>

<g fill="none" stroke="#000000" stroke-opacity="1" stroke-width="1" stroke-linecap="round" stroke-linejoin="round" transform="matrix(1,0,0,1,0,0)"
font-family="Droid Sans" font-size="10" font-weight="400" font-style="normal" 
>
<polyline fill="none" vector-effect="non-scaling-stroke" points="383,123 381,122 380,121 378,120 376,119 374,118 373,117 371,116 369,115 367,114 366,113 364,112 362,111 360,111 359,110 357,109 355,108 353,107 351,106 350,105 348,104 346,103 344,102 343,101 341,101 339,100 337,99 335,98 334,97 332,96 330,95 328,94 326,94 325,93 323,92 321,91 319,90 317,89 315,89 314,88 312,87 310,86 308,85 306,85 304,84 303,83 301,82 299,81 297,81 295,80 293,79 292,78 290,78 288,77 286,76 284,75 282,75 280,74 278,73 277,73 275,72 273,71 271,70 269,70 267,69 265,68 263,68 262,67 260,66 258,66 256,65 254,64 252,64 250,63 248,62 246,62 245,61 243,61 241,60 239,59 237,59 235,58 233,57 231,57 229,56 227,56 225,55 224,55 222,54 220,53 218,53 216,52 214,52 212,51 210,51 208,50 206,50 204,49 202,49 200,48 199,48 197,47 195,47 193,46 191,46 189,45 187,45 185,44 183,44 181,43 179,43 177,42 175,42 173,42 171,41 169,41 167,40 165,40 163,39 162,39 160,39 158,38 156,38 154,37 152,37 150,37 148,36 146,36 144,36 142,35 140,35 138,35 136,34 134,34 132,34 130,33 128,33 126,33 124,32 122,32 120,32 118,32 116,31 114,31 112,31 110,30 108,30 106,30 104,30 102,29 100,29 98,29 96,29 94,28 92,28 90,28 88,28 86,28 84,27 82,27 80,27 78,27 76,27 74,27 72,26 70,26 68,26 66,26 64,26 62,26 60,26 59,25 57,25 55,25 53,25 51,25 49,25 47,25 45,25 43,25 41,25 39,24 37,24 35,24 33,24 31,24 29,24 27,24 25,24 23,24 21,24 19,24 17,24 15,24 13,24 " />
<polyline fill="none" vector-effect="non-scaling-stroke" points="374,139 392,107 " />
<polyline fill="none" vector-effect="non-scaling-stroke" points="13,5 13,43 " />
<polyline fill="none" vector-effect="non-scaling-stroke" points="189,55 185,54 " />
<polyline fill="none" vector-effect="non-scaling-stroke" points="182,49 182,51 183,53 185,54 " />
<polyline fill="none" vector-effect="non-scaling-stroke" points="182,49 183,47 " />
<polyline fill="none" vector-effect="non-scaling-stroke" points="190,49 190,47 189,46 188,45 186,45 184,45 183,47 " />
<polyline fill="none" vector-effect="non-scaling-stroke" points="190,49 189,55 " />
<polyline fill="none" vector-effect="non-scaling-stroke" points="181,60 183,60 185,59 187,58 188,56 189,55 " />
<polyline fill="none" vector-effect="non-scaling-stroke" points="195,51 200,48 " />
<polyline fill="none" vector-effect="non-scaling-stroke" points="200,48 196,64 " />
<polyline fill="none" vector-effect="non-scaling-stroke" points="205,49 209,50 " />
<polyline fill="none" vector-effect="non-scaling-stroke" points="207,58 209,58 211,57 212,55 212,53 211,52 210,51 209,50 " />
<polyline fill="none" vector-effect="non-scaling-stroke" points="205,57 207,58 " />
<polyline fill="none" vector-effect="non-scaling-stroke" points="210,62 210,60 209,59 207,58 " />
<polyline fill="none" vector-effect="non-scaling-stroke" points="210,62 209,64 " />
<polyline fill="none" vector-effect="non-scaling-stroke" points="205,67 207,67 208,66 209,64 " />
<polyline fill="none" vector-effect="non-scaling-stroke" points="205,67 201,66 " />
<polyline fill="none" vector-effect="non-scaling-stroke" points="223,55 223,54 222,54 220,54 " />
<polyline fill="none" vector-effect="non-scaling-stroke" points="220,54 218,56 217,57 216,59 216,61 215,63 215,65 216,67 216,69 " />
<polyline fill="none" vector-effect="non-scaling-stroke" points="216,69 216,70 218,70 219,70 " />
<polyline fill="none" vector-effect="non-scaling-stroke" points="219,70 221,68 222,66 223,65 223,63 224,61 224,59 224,57 223,55 " />
</g>
</g>
</svg>
