<?xml version="1.0" encoding="UTF-8" standalone="no"?>
<svg width="74.0833mm" height="23.2833mm"
 viewBox="0 0 210 66"
 xmlns="http://www.w3.org/2000/svg" xmlns:xlink="http://www.w3.org/1999/xlink"  version="1.2" baseProfile="tiny">
<title>Qt Svg Document</title>
<desc>Generated with Qt</desc>
<defs>
</defs>
<g fill="none" stroke="black" stroke-width="1" fill-rule="evenodd" stroke-linecap="square" stroke-linejoin="bevel" >

<g fill="#ffffff" fill-opacity="1" stroke="none" transform="matrix(1,0,0,1,0,0)"
font-family="Droid Sans" font-size="10" font-weight="400" font-style="normal" 
>
<path vector-effect="non-scaling-stroke" fill-rule="evenodd" d="M0,0 L210,0 L210,66 L0,66 L0,0"/>
</g>

<g fill="none" stroke="#000000" stroke-opacity="1" stroke-width="1" stroke-linecap="round" stroke-linejoin="round" transform="matrix(1,0,0,1,0,0)"
font-family="Droid Sans" font-size="10" font-weight="400" font-style="normal" 
>
<polyline fill="none" vector-effect="non-scaling-stroke" points="16,5 16,39 " />
<polyline fill="none" vector-effect="non-scaling-stroke" points="189,45 187,44 185,44 183,43 181,43 180,42 178,42 176,41 174,41 172,40 170,40 168,39 166,39 164,39 162,38 160,38 158,37 156,37 154,36 152,36 150,36 148,35 146,35 144,34 142,34 140,34 139,33 137,33 135,33 133,32 131,32 129,32 127,31 125,31 123,31 121,30 119,30 117,30 115,29 113,29 111,29 109,28 107,28 105,28 103,28 101,27 99,27 97,27 95,27 93,26 91,26 89,26 87,26 85,26 83,25 81,25 79,25 77,25 75,25 73,24 71,24 69,24 67,24 65,24 63,24 61,24 59,23 57,23 55,23 53,23 51,23 49,23 47,23 45,23 43,23 41,22 39,22 37,22 35,22 33,22 31,22 29,22 27,22 25,22 23,22 21,22 19,22 17,22 16,22 " />
<polyline fill="none" vector-effect="non-scaling-stroke" points="194,28 185,61 " />
<polyline fill="none" vector-effect="non-scaling-stroke" points="91,35 88,34 " />
<polyline fill="none" vector-effect="non-scaling-stroke" points="85,30 85,32 86,33 88,34 " />
<polyline fill="none" vector-effect="non-scaling-stroke" points="85,30 85,29 " />
<polyline fill="none" vector-effect="non-scaling-stroke" points="92,30 92,28 91,27 89,26 88,26 86,27 85,28 85,29 " />
<polyline fill="none" vector-effect="non-scaling-stroke" points="92,30 91,35 " />
<polyline fill="none" vector-effect="non-scaling-stroke" points="85,41 87,40 89,39 90,38 91,36 91,35 " />
<polyline fill="none" vector-effect="non-scaling-stroke" points="97,30 101,27 " />
<polyline fill="none" vector-effect="non-scaling-stroke" points="101,27 99,42 " />
<polyline fill="none" vector-effect="non-scaling-stroke" points="106,28 109,28 " />
<polyline fill="none" vector-effect="non-scaling-stroke" points="108,35 110,35 111,34 112,33 112,31 111,29 110,29 109,28 " />
<polyline fill="none" vector-effect="non-scaling-stroke" points="107,35 108,35 " />
<polyline fill="none" vector-effect="non-scaling-stroke" points="111,39 111,37 110,36 109,35 108,35 " />
<polyline fill="none" vector-effect="non-scaling-stroke" points="111,39 111,41 " />
<polyline fill="none" vector-effect="non-scaling-stroke" points="107,44 109,43 110,42 111,41 " />
<polyline fill="none" vector-effect="non-scaling-stroke" points="107,44 104,43 " />
<polyline fill="none" vector-effect="non-scaling-stroke" points="117,33 121,30 " />
<polyline fill="none" vector-effect="non-scaling-stroke" points="121,30 119,45 " />
</g>
</g>
</svg>
