<?xml version="1.0" encoding="UTF-8" standalone="no"?>
<svg width="80.4333mm" height="24.3417mm"
 viewBox="0 0 228 69"
 xmlns="http://www.w3.org/2000/svg" xmlns:xlink="http://www.w3.org/1999/xlink"  version="1.2" baseProfile="tiny">
<title>Qt Svg Document</title>
<desc>Generated with Qt</desc>
<defs>
</defs>
<g fill="none" stroke="black" stroke-width="1" fill-rule="evenodd" stroke-linecap="square" stroke-linejoin="bevel" >

<g fill="#ffffff" fill-opacity="1" stroke="none" transform="matrix(1,0,0,1,0,0)"
font-family="Open Sans" font-size="10" font-weight="400" font-style="normal" 
>
<path vector-effect="non-scaling-stroke" fill-rule="evenodd" d="M0,0 L228,0 L228,69 L0,69 L0,0"/>
</g>

<g fill="none" stroke="#000000" stroke-opacity="1" stroke-width="1" stroke-linecap="round" stroke-linejoin="round" transform="matrix(1,0,0,1,0,0)"
font-family="Open Sans" font-size="10" font-weight="400" font-style="normal" 
>
<polyline fill="none" vector-effect="non-scaling-stroke" points="207,48 205,48 204,47 202,47 200,46 198,46 196,45 194,45 192,44 190,44 188,43 186,43 184,42 182,42 180,41 178,41 176,41 174,40 172,40 170,39 168,39 167,38 165,38 163,38 161,37 159,37 157,37 155,36 153,36 151,35 149,35 147,35 145,34 143,34 141,34 139,33 137,33 135,33 133,32 131,32 129,32 127,31 125,31 123,31 121,31 119,30 117,30 115,30 113,29 111,29 109,29 107,29 105,28 103,28 101,28 99,28 97,27 95,27 93,27 91,27 89,27 87,26 85,26 83,26 81,26 79,26 78,26 76,25 74,25 72,25 70,25 68,25 66,25 64,25 62,24 60,24 58,24 56,24 54,24 52,24 50,24 48,24 46,24 44,24 42,23 40,23 38,23 36,23 34,23 32,23 30,23 28,23 26,23 24,23 22,23 20,23 18,23 16,23 " />
<polyline fill="none" vector-effect="non-scaling-stroke" points="212,32 207,48 " />
<polyline fill="none" vector-effect="non-scaling-stroke" points="207,48 203,65 " />
<polyline fill="none" vector-effect="non-scaling-stroke" points="16,6 16,23 " />
<polyline fill="none" vector-effect="non-scaling-stroke" points="16,23 16,40 " />
<polyline fill="none" vector-effect="non-scaling-stroke" points="99,36 95,36 " />
<polyline fill="none" vector-effect="non-scaling-stroke" points="92,32 92,34 93,35 95,36 " />
<polyline fill="none" vector-effect="non-scaling-stroke" points="92,32 92,30 " />
<polyline fill="none" vector-effect="non-scaling-stroke" points="99,31 99,29 98,28 97,27 95,27 93,28 93,30 92,30 " />
<polyline fill="none" vector-effect="non-scaling-stroke" points="99,31 99,36 " />
<polyline fill="none" vector-effect="non-scaling-stroke" points="93,42 95,42 96,41 97,39 98,37 99,36 " />
<polyline fill="none" vector-effect="non-scaling-stroke" points="104,32 108,29 " />
<polyline fill="none" vector-effect="non-scaling-stroke" points="108,29 106,44 " />
<polyline fill="none" vector-effect="non-scaling-stroke" points="113,29 117,30 " />
<polyline fill="none" vector-effect="non-scaling-stroke" points="116,37 118,37 119,36 120,34 120,32 119,31 117,30 " />
<polyline fill="none" vector-effect="non-scaling-stroke" points="114,36 116,37 " />
<polyline fill="none" vector-effect="non-scaling-stroke" points="119,41 119,39 118,37 116,37 " />
<polyline fill="none" vector-effect="non-scaling-stroke" points="119,41 119,42 " />
<polyline fill="none" vector-effect="non-scaling-stroke" points="115,45 116,45 118,44 119,43 119,42 " />
<polyline fill="none" vector-effect="non-scaling-stroke" points="115,45 111,45 " />
<polyline fill="none" vector-effect="non-scaling-stroke" points="124,38 128,38 " />
<polyline fill="none" vector-effect="non-scaling-stroke" points="131,42 131,40 130,39 128,38 " />
<polyline fill="none" vector-effect="non-scaling-stroke" points="131,42 131,44 " />
<polyline fill="none" vector-effect="non-scaling-stroke" points="124,43 124,45 125,46 126,47 128,47 130,46 130,44 131,44 " />
<polyline fill="none" vector-effect="non-scaling-stroke" points="124,43 124,38 " />
<polyline fill="none" vector-effect="non-scaling-stroke" points="130,32 129,32 127,33 126,35 125,37 124,38 " />
</g>
</g>
</svg>
