<?xml version="1.0" encoding="UTF-8" standalone="no"?>
<svg width="80.4333mm" height="24.3417mm"
 viewBox="0 0 228 69"
 xmlns="http://www.w3.org/2000/svg" xmlns:xlink="http://www.w3.org/1999/xlink"  version="1.2" baseProfile="tiny">
<title>Qt Svg Document</title>
<desc>Generated with Qt</desc>
<defs>
</defs>
<g fill="none" stroke="black" stroke-width="1" fill-rule="evenodd" stroke-linecap="square" stroke-linejoin="bevel" >

<g fill="#ffffff" fill-opacity="1" stroke="none" transform="matrix(1,0,0,1,0,0)"
font-family="Open Sans" font-size="10" font-weight="400" font-style="normal" 
>
<path vector-effect="non-scaling-stroke" fill-rule="evenodd" d="M0,0 L228,0 L228,69 L0,69 L0,0"/>
</g>

<g fill="none" stroke="#000000" stroke-opacity="1" stroke-width="1" stroke-linecap="round" stroke-linejoin="round" transform="matrix(1,0,0,1,0,0)"
font-family="Open Sans" font-size="10" font-weight="400" font-style="normal" 
>
<polyline fill="none" vector-effect="non-scaling-stroke" points="212,6 212,23 " />
<polyline fill="none" vector-effect="non-scaling-stroke" points="212,23 212,40 " />
<polyline fill="none" vector-effect="non-scaling-stroke" points="212,23 210,23 208,23 206,23 204,23 202,23 200,23 198,23 196,23 194,23 192,23 190,23 188,23 186,23 184,24 182,24 180,24 178,24 176,24 174,24 172,24 170,24 168,24 166,24 164,25 162,25 160,25 158,25 156,25 154,25 152,25 150,26 148,26 146,26 144,26 142,26 140,27 138,27 136,27 134,27 132,27 130,28 128,28 126,28 124,28 122,28 120,29 118,29 116,29 114,29 112,30 110,30 108,30 106,31 104,31 102,31 100,31 98,32 96,32 94,32 92,33 90,33 88,33 86,34 85,34 83,34 81,35 79,35 77,35 75,36 73,36 71,37 69,37 67,37 65,38 63,38 61,39 59,39 57,39 55,40 53,40 51,41 49,41 47,42 45,42 43,42 41,43 39,43 38,44 36,44 34,45 32,45 30,46 28,46 26,47 24,47 22,48 20,48 " />
<polyline fill="none" vector-effect="non-scaling-stroke" points="212,23 21,23 " />
<polyline fill="none" vector-effect="non-scaling-stroke" points="21,6 21,40 " />
<polyline fill="none" vector-effect="non-scaling-stroke" points="25,65 16,32 " />
<polyline fill="none" vector-effect="non-scaling-stroke" points="105,39 102,40 " />
<polyline fill="none" vector-effect="non-scaling-stroke" points="98,37 99,38 100,39 102,40 " />
<polyline fill="none" vector-effect="non-scaling-stroke" points="98,37 98,35 " />
<polyline fill="none" vector-effect="non-scaling-stroke" points="105,34 104,33 103,32 101,31 99,32 98,33 98,35 " />
<polyline fill="none" vector-effect="non-scaling-stroke" points="105,34 105,39 " />
<polyline fill="none" vector-effect="non-scaling-stroke" points="101,47 103,46 104,44 105,42 105,41 105,39 " />
<polyline fill="none" vector-effect="non-scaling-stroke" points="110,34 113,30 " />
<polyline fill="none" vector-effect="non-scaling-stroke" points="113,30 115,45 " />
<polyline fill="none" vector-effect="non-scaling-stroke" points="118,31 118,29 " />
<polyline fill="none" vector-effect="non-scaling-stroke" points="118,29 125,28 " />
<polyline fill="none" vector-effect="non-scaling-stroke" points="125,28 123,44 " />
<polyline fill="none" vector-effect="non-scaling-stroke" points="130,31 133,27 " />
<polyline fill="none" vector-effect="non-scaling-stroke" points="133,27 135,42 " />
</g>
</g>
</svg>
