<?xml version="1.0" encoding="UTF-8" standalone="no"?>
<svg width="80.4333mm" height="27.1639mm"
 viewBox="0 0 228 77"
 xmlns="http://www.w3.org/2000/svg" xmlns:xlink="http://www.w3.org/1999/xlink"  version="1.2" baseProfile="tiny">
<title>Qt Svg Document</title>
<desc>Generated with Qt</desc>
<defs>
</defs>
<g fill="none" stroke="black" stroke-width="1" fill-rule="evenodd" stroke-linecap="square" stroke-linejoin="bevel" >

<g fill="#ffffff" fill-opacity="1" stroke="none" transform="matrix(1,0,0,1,0,0)"
font-family="Open Sans" font-size="10" font-weight="400" font-style="normal" 
>
<path vector-effect="non-scaling-stroke" fill-rule="evenodd" d="M0,0 L228,0 L228,77 L0,77 L0,0"/>
</g>

<g fill="none" stroke="#000000" stroke-opacity="1" stroke-width="1" stroke-linecap="round" stroke-linejoin="round" transform="matrix(1,0,0,1,0,0)"
font-family="Open Sans" font-size="10" font-weight="400" font-style="normal" 
>
<polyline fill="none" vector-effect="non-scaling-stroke" points="213,38 213,55 " />
<polyline fill="none" vector-effect="non-scaling-stroke" points="213,55 213,72 " />
</g>

<g fill="#00ffff" fill-opacity="1" stroke="none" transform="matrix(1,0,0,1,0,0)"
font-family="Open Sans" font-size="10" font-weight="400" font-style="normal" 
>
<path vector-effect="non-scaling-stroke" fill-rule="evenodd" d="M210,53 L214,53 L214,57 L210,57 L210,53"/>
</g>

<g fill="#0000ff" fill-opacity="1" stroke="none" transform="matrix(1,0,0,1,0,0)"
font-family="Open Sans" font-size="10" font-weight="400" font-style="normal" 
>
<path vector-effect="non-scaling-stroke" fill-rule="evenodd" d="M18,53 L22,53 L22,57 L18,57 L18,53"/>
</g>

<g fill="none" stroke="#000000" stroke-opacity="1" stroke-width="1" stroke-linecap="round" stroke-linejoin="round" transform="matrix(1,0,0,1,0,0)"
font-family="Open Sans" font-size="10" font-weight="400" font-style="normal" 
>
<polyline fill="none" vector-effect="non-scaling-stroke" points="20,55 20,72 " />
<polyline fill="none" vector-effect="non-scaling-stroke" points="20,38 20,55 " />
<polyline fill="none" vector-effect="non-scaling-stroke" points="103,64 100,64 " />
<polyline fill="none" vector-effect="non-scaling-stroke" points="96,60 97,62 98,63 100,64 " />
<polyline fill="none" vector-effect="non-scaling-stroke" points="96,60 96,58 " />
<polyline fill="none" vector-effect="non-scaling-stroke" points="103,58 103,57 102,56 100,55 99,55 97,56 97,58 96,58 " />
<polyline fill="none" vector-effect="non-scaling-stroke" points="103,58 103,64 " />
<polyline fill="none" vector-effect="non-scaling-stroke" points="98,71 100,70 102,69 103,67 103,65 103,64 " />
<polyline fill="none" vector-effect="non-scaling-stroke" points="109,58 112,55 " />
<polyline fill="none" vector-effect="non-scaling-stroke" points="112,55 112,71 " />
<polyline fill="none" vector-effect="non-scaling-stroke" points="117,57 117,55 " />
<polyline fill="none" vector-effect="non-scaling-stroke" points="117,55 124,55 " />
<polyline fill="none" vector-effect="non-scaling-stroke" points="124,55 121,71 " />
<polyline fill="none" vector-effect="non-scaling-stroke" points="135,56 134,55 133,55 132,55 131,56 " />
<polyline fill="none" vector-effect="non-scaling-stroke" points="131,56 130,58 130,60 130,62 130,64 130,66 130,68 131,69 131,70 " />
<polyline fill="none" vector-effect="non-scaling-stroke" points="131,70 132,70 133,71 134,70 135,70 " />
<polyline fill="none" vector-effect="non-scaling-stroke" points="135,70 136,68 136,66 136,64 136,62 136,60 136,58 135,56 " />
<polyline fill="none" vector-effect="non-scaling-stroke" points="20,22 22,23 24,23 26,24 28,24 30,25 32,25 34,26 35,27 37,27 39,28 41,28 43,29 45,29 47,30 49,30 51,31 53,31 55,32 57,32 59,33 61,33 63,34 64,34 66,35 68,35 70,36 72,36 74,37 76,37 78,37 80,38 82,38 84,39 86,39 88,40 90,40 92,40 94,41 96,41 98,42 100,42 102,42 104,43 106,43 107,43 109,44 111,44 113,44 115,45 117,45 119,45 121,46 123,46 125,46 127,47 129,47 131,47 133,48 135,48 137,48 139,48 141,49 143,49 145,49 147,50 149,50 151,50 153,50 155,51 157,51 159,51 161,51 163,51 165,52 167,52 169,52 171,52 173,52 175,53 177,53 179,53 181,53 183,53 185,53 187,54 189,54 191,54 193,54 195,54 197,54 199,54 201,54 203,55 205,55 207,55 209,55 211,55 212,55 " />
<polyline fill="none" vector-effect="non-scaling-stroke" points="25,5 15,39 " />
</g>
</g>
</svg>
