<?xml version="1.0" encoding="UTF-8" standalone="no"?>
<svg width="80.4333mm" height="27.1639mm"
 viewBox="0 0 228 77"
 xmlns="http://www.w3.org/2000/svg" xmlns:xlink="http://www.w3.org/1999/xlink"  version="1.2" baseProfile="tiny">
<title>Qt Svg Document</title>
<desc>Generated with Qt</desc>
<defs>
</defs>
<g fill="none" stroke="black" stroke-width="1" fill-rule="evenodd" stroke-linecap="square" stroke-linejoin="bevel" >

<g fill="#ffffff" fill-opacity="1" stroke="none" transform="matrix(1,0,0,1,0,0)"
font-family="Open Sans" font-size="10" font-weight="400" font-style="normal" 
>
<path vector-effect="non-scaling-stroke" fill-rule="evenodd" d="M0,0 L228,0 L228,77 L0,77 L0,0"/>
</g>

<g fill="none" stroke="#000000" stroke-opacity="1" stroke-width="1" stroke-linecap="round" stroke-linejoin="round" transform="matrix(1,0,0,1,0,0)"
font-family="Open Sans" font-size="10" font-weight="400" font-style="normal" 
>
<polyline fill="none" vector-effect="non-scaling-stroke" points="15,38 15,55 " />
<polyline fill="none" vector-effect="non-scaling-stroke" points="15,55 15,72 " />
<polyline fill="none" vector-effect="non-scaling-stroke" points="15,55 208,55 " />
<polyline fill="none" vector-effect="non-scaling-stroke" points="208,55 208,72 " />
<polyline fill="none" vector-effect="non-scaling-stroke" points="208,38 208,55 " />
<polyline fill="none" vector-effect="non-scaling-stroke" points="98,64 95,64 " />
<polyline fill="none" vector-effect="non-scaling-stroke" points="91,60 92,62 93,63 95,64 " />
<polyline fill="none" vector-effect="non-scaling-stroke" points="91,60 91,58 " />
<polyline fill="none" vector-effect="non-scaling-stroke" points="98,58 98,57 97,56 95,55 94,55 92,56 92,58 91,58 " />
<polyline fill="none" vector-effect="non-scaling-stroke" points="98,58 98,64 " />
<polyline fill="none" vector-effect="non-scaling-stroke" points="93,71 95,70 97,69 98,67 98,65 98,64 " />
<polyline fill="none" vector-effect="non-scaling-stroke" points="104,58 107,55 " />
<polyline fill="none" vector-effect="non-scaling-stroke" points="107,55 107,71 " />
<polyline fill="none" vector-effect="non-scaling-stroke" points="112,57 112,55 " />
<polyline fill="none" vector-effect="non-scaling-stroke" points="112,55 119,55 " />
<polyline fill="none" vector-effect="non-scaling-stroke" points="119,55 116,71 " />
<polyline fill="none" vector-effect="non-scaling-stroke" points="130,56 129,55 128,55 127,55 126,56 " />
<polyline fill="none" vector-effect="non-scaling-stroke" points="126,56 125,58 125,60 125,62 125,64 125,66 125,68 126,69 126,70 " />
<polyline fill="none" vector-effect="non-scaling-stroke" points="126,70 127,70 128,71 129,70 130,70 " />
<polyline fill="none" vector-effect="non-scaling-stroke" points="130,70 131,68 131,66 131,64 131,62 131,60 131,58 130,56 " />
<polyline fill="none" vector-effect="non-scaling-stroke" points="16,55 18,55 20,55 22,55 23,55 25,55 27,54 29,54 31,54 33,54 35,54 37,54 39,54 41,54 43,53 45,53 47,53 49,53 51,53 53,53 55,52 57,52 59,52 61,52 63,52 65,51 67,51 69,51 71,51 73,50 75,50 77,50 79,50 81,50 83,49 85,49 87,49 89,48 91,48 93,48 95,48 97,47 99,47 101,47 103,46 105,46 107,46 109,45 111,45 113,45 115,44 117,44 119,44 121,43 123,43 125,43 127,42 129,42 131,42 133,41 135,41 136,40 138,40 140,40 142,39 144,39 146,38 148,38 150,37 152,37 154,37 156,36 158,36 160,35 162,35 164,34 166,34 168,33 170,33 172,32 174,32 175,31 177,31 179,30 181,30 183,29 185,29 187,28 189,28 191,27 193,26 195,26 197,25 199,25 200,24 202,24 204,23 206,22 208,22 " />
<polyline fill="none" vector-effect="non-scaling-stroke" points="203,5 213,39 " />
</g>
</g>
</svg>
