<?xml version="1.0" encoding="UTF-8" standalone="no"?>
<svg width="80.4333mm" height="24.3417mm"
 viewBox="0 0 228 69"
 xmlns="http://www.w3.org/2000/svg" xmlns:xlink="http://www.w3.org/1999/xlink"  version="1.2" baseProfile="tiny">
<title>Qt Svg Document</title>
<desc>Generated with Qt</desc>
<defs>
</defs>
<g fill="none" stroke="black" stroke-width="1" fill-rule="evenodd" stroke-linecap="square" stroke-linejoin="bevel" >

<g fill="#ffffff" fill-opacity="1" stroke="none" transform="matrix(1,0,0,1,0,0)"
font-family="Open Sans" font-size="10" font-weight="400" font-style="normal" 
>
<path vector-effect="non-scaling-stroke" fill-rule="evenodd" d="M0,0 L228,0 L228,69 L0,69 L0,0"/>
</g>

<g fill="none" stroke="#000000" stroke-opacity="1" stroke-width="1" stroke-linecap="round" stroke-linejoin="round" transform="matrix(1,0,0,1,0,0)"
font-family="Open Sans" font-size="10" font-weight="400" font-style="normal" 
>
<polyline fill="none" vector-effect="non-scaling-stroke" points="16,30 16,47 " />
<polyline fill="none" vector-effect="non-scaling-stroke" points="16,47 16,64 " />
<polyline fill="none" vector-effect="non-scaling-stroke" points="16,47 207,47 " />
<polyline fill="none" vector-effect="non-scaling-stroke" points="207,47 207,64 " />
<polyline fill="none" vector-effect="non-scaling-stroke" points="207,30 207,47 " />
<polyline fill="none" vector-effect="non-scaling-stroke" points="99,56 95,56 " />
<polyline fill="none" vector-effect="non-scaling-stroke" points="92,52 92,54 93,55 95,56 " />
<polyline fill="none" vector-effect="non-scaling-stroke" points="92,52 92,50 " />
<polyline fill="none" vector-effect="non-scaling-stroke" points="99,50 98,49 97,48 95,47 94,47 92,48 92,50 " />
<polyline fill="none" vector-effect="non-scaling-stroke" points="99,50 99,56 " />
<polyline fill="none" vector-effect="non-scaling-stroke" points="93,62 95,62 97,60 98,59 98,57 99,56 " />
<polyline fill="none" vector-effect="non-scaling-stroke" points="104,50 107,47 " />
<polyline fill="none" vector-effect="non-scaling-stroke" points="107,47 107,62 " />
<polyline fill="none" vector-effect="non-scaling-stroke" points="112,49 112,47 " />
<polyline fill="none" vector-effect="non-scaling-stroke" points="112,47 119,47 " />
<polyline fill="none" vector-effect="non-scaling-stroke" points="119,47 116,62 " />
<polyline fill="none" vector-effect="non-scaling-stroke" points="129,48 129,47 128,47 127,47 126,48 " />
<polyline fill="none" vector-effect="non-scaling-stroke" points="126,48 125,50 125,52 124,54 124,56 125,58 125,59 126,61 126,62 " />
<polyline fill="none" vector-effect="non-scaling-stroke" points="126,62 127,62 128,62 129,62 " />
<polyline fill="none" vector-effect="non-scaling-stroke" points="129,62 130,60 131,58 131,56 131,54 131,52 130,50 130,48 129,48 " />
<polyline fill="none" vector-effect="non-scaling-stroke" points="16,47 18,47 20,47 22,47 24,47 26,47 28,47 30,47 32,47 34,47 36,47 38,47 40,47 42,47 44,46 46,46 48,46 50,46 52,46 54,46 56,46 58,46 60,46 62,46 64,45 66,45 68,45 70,45 72,45 74,45 76,45 78,44 80,44 82,44 84,44 86,44 88,43 90,43 92,43 94,43 96,43 98,42 100,42 102,42 104,42 106,42 108,41 110,41 112,41 114,41 116,40 118,40 120,40 122,39 124,39 126,39 128,39 130,38 132,38 133,38 135,37 137,37 139,37 141,36 143,36 145,36 147,35 149,35 151,35 153,34 155,34 157,33 159,33 161,33 163,32 165,32 167,31 169,31 171,31 173,30 175,30 177,29 179,29 181,28 183,28 185,28 186,27 188,27 190,26 192,26 194,25 196,25 198,24 200,24 202,23 204,23 206,22 207,22 " />
<polyline fill="none" vector-effect="non-scaling-stroke" points="203,5 212,38 " />
</g>
</g>
</svg>
