<?xml version="1.0" encoding="UTF-8" standalone="no"?>
<svg width="80.4333mm" height="27.1639mm"
 viewBox="0 0 228 77"
 xmlns="http://www.w3.org/2000/svg" xmlns:xlink="http://www.w3.org/1999/xlink"  version="1.2" baseProfile="tiny">
<title>Qt Svg Document</title>
<desc>Generated with Qt</desc>
<defs>
</defs>
<g fill="none" stroke="black" stroke-width="1" fill-rule="evenodd" stroke-linecap="square" stroke-linejoin="bevel" >

<g fill="#ffffff" fill-opacity="1" stroke="none" transform="matrix(1,0,0,1,0,0)"
font-family="Open Sans" font-size="10" font-weight="400" font-style="normal" 
>
<path vector-effect="non-scaling-stroke" fill-rule="evenodd" d="M0,0 L228,0 L228,77 L0,77 L0,0"/>
</g>

<g fill="none" stroke="#000000" stroke-opacity="1" stroke-width="1" stroke-linecap="round" stroke-linejoin="round" transform="matrix(1,0,0,1,0,0)"
font-family="Open Sans" font-size="10" font-weight="400" font-style="normal" 
>
<polyline fill="none" vector-effect="non-scaling-stroke" points="15,6 15,23 " />
<polyline fill="none" vector-effect="non-scaling-stroke" points="15,23 15,40 " />
<polyline fill="none" vector-effect="non-scaling-stroke" points="15,23 208,23 " />
<polyline fill="none" vector-effect="non-scaling-stroke" points="208,23 208,40 " />
<polyline fill="none" vector-effect="non-scaling-stroke" points="208,6 208,23 " />
<polyline fill="none" vector-effect="non-scaling-stroke" points="208,56 206,55 204,55 202,54 200,54 198,53 196,53 194,52 193,51 191,51 189,50 187,50 185,49 183,49 181,48 179,48 177,47 175,47 173,46 171,46 169,45 167,45 165,44 164,44 162,43 160,43 158,42 156,42 154,41 152,41 150,41 148,40 146,40 144,39 142,39 140,38 138,38 136,38 134,37 132,37 130,36 128,36 126,36 124,35 122,35 120,35 119,34 117,34 115,34 113,33 111,33 109,33 107,32 105,32 103,32 101,31 99,31 97,31 95,30 93,30 91,30 89,30 87,29 85,29 83,29 81,28 79,28 77,28 75,28 73,27 71,27 69,27 67,27 65,27 63,26 61,26 59,26 57,26 55,26 53,25 51,25 49,25 47,25 45,25 43,25 41,24 39,24 37,24 35,24 33,24 31,24 29,24 27,24 25,23 23,23 21,23 19,23 17,23 16,23 " />
<polyline fill="none" vector-effect="non-scaling-stroke" points="203,73 213,39 " />
<polyline fill="none" vector-effect="non-scaling-stroke" points="100,40 97,40 " />
<polyline fill="none" vector-effect="non-scaling-stroke" points="94,36 94,38 95,39 97,40 " />
<polyline fill="none" vector-effect="non-scaling-stroke" points="94,36 94,34 " />
<polyline fill="none" vector-effect="non-scaling-stroke" points="101,35 101,33 100,32 98,31 97,31 95,32 94,34 " />
<polyline fill="none" vector-effect="non-scaling-stroke" points="101,35 100,40 " />
<polyline fill="none" vector-effect="non-scaling-stroke" points="94,47 96,46 98,45 99,43 100,42 100,40 " />
<polyline fill="none" vector-effect="non-scaling-stroke" points="106,36 110,33 " />
<polyline fill="none" vector-effect="non-scaling-stroke" points="110,33 108,48 " />
<polyline fill="none" vector-effect="non-scaling-stroke" points="115,35 115,34 " />
<polyline fill="none" vector-effect="non-scaling-stroke" points="115,34 122,34 " />
<polyline fill="none" vector-effect="non-scaling-stroke" points="122,34 117,50 " />
<polyline fill="none" vector-effect="non-scaling-stroke" points="127,39 131,36 " />
<polyline fill="none" vector-effect="non-scaling-stroke" points="131,36 129,51 " />
</g>
</g>
</svg>
