<?xml version="1.0" encoding="UTF-8" standalone="no"?>
<svg width="117.475mm" height="58.5611mm"
 viewBox="0 0 333 166"
 xmlns="http://www.w3.org/2000/svg" xmlns:xlink="http://www.w3.org/1999/xlink"  version="1.2" baseProfile="tiny">
<title>Qt Svg Document</title>
<desc>Generated with Qt</desc>
<defs>
</defs>
<g fill="none" stroke="black" stroke-width="1" fill-rule="evenodd" stroke-linecap="square" stroke-linejoin="bevel" >

<g fill="#ffffff" fill-opacity="1" stroke="none" transform="matrix(1,0,0,1,0,0)"
font-family="Open Sans" font-size="10" font-weight="400" font-style="normal" 
>
<path vector-effect="non-scaling-stroke" fill-rule="evenodd" d="M0,0 L333,0 L333,166 L0,166 L0,0"/>
</g>

<g fill="none" stroke="#000000" stroke-opacity="1" stroke-width="1" stroke-linecap="round" stroke-linejoin="round" transform="matrix(1,0,0,1,0,0)"
font-family="Open Sans" font-size="10" font-weight="400" font-style="normal" 
>
<polyline fill="none" vector-effect="non-scaling-stroke" points="10,143 12,143 14,143 16,143 18,143 20,143 22,143 24,143 26,143 28,143 30,143 32,142 34,142 36,142 38,142 40,142 42,142 44,142 46,141 48,141 50,141 52,141 54,141 56,141 58,140 60,140 62,140 64,140 66,139 68,139 70,139 72,138 74,138 76,138 78,138 80,137 82,137 84,137 86,136 88,136 90,135 91,135 93,135 95,134 97,134 99,133 101,133 103,133 105,132 107,132 109,131 111,131 113,130 115,130 117,129 119,129 121,128 123,128 125,127 126,127 128,126 130,126 132,125 134,124 136,124 138,123 140,123 142,122 144,121 146,121 147,120 149,119 151,119 153,118 155,117 157,117 159,116 161,115 162,115 164,114 166,113 168,112 170,112 172,111 174,110 175,109 177,109 179,108 181,107 183,106 185,105 186,104 188,104 190,103 192,102 194,101 195,100 197,99 199,98 201,98 203,97 204,96 206,95 208,94 210,93 211,92 213,91 215,90 217,89 218,88 220,87 222,86 224,85 225,84 227,83 229,82 231,81 232,80 234,79 236,78 237,77 239,76 241,75 242,74 244,72 246,71 247,70 249,69 251,68 252,67 254,66 256,64 257,63 259,62 260,61 262,60 264,59 265,57 267,56 268,55 270,54 272,52 273,51 275,50 276,49 278,47 279,46 281,45 282,44 284,42 286,41 287,40 289,38 290,37 292,36 293,34 295,33 296,32 297,30 299,29 300,28 302,26 303,25 305,24 306,22 308,21 309,19 " />
<polyline fill="none" vector-effect="non-scaling-stroke" points="10,162 10,143 " />
<polyline fill="none" vector-effect="non-scaling-stroke" points="10,143 10,124 " />
<polyline fill="none" vector-effect="non-scaling-stroke" points="10,143 12,143 14,143 16,143 18,143 20,143 22,143 24,143 26,143 28,143 30,142 32,142 34,142 36,142 38,142 40,142 42,142 44,141 46,141 48,141 50,141 52,141 54,140 56,140 58,140 60,140 62,139 64,139 66,139 68,138 70,138 72,138 74,137 76,137 78,137 80,136 82,136 83,135 85,135 87,135 89,134 91,134 93,133 95,133 97,132 99,132 101,131 103,131 105,130 107,130 109,129 111,129 113,128 114,128 116,127 118,126 120,126 122,125 124,124 126,124 128,123 130,123 132,122 133,121 135,120 137,120 139,119 141,118 143,118 145,117 147,116 148,115 150,115 152,114 154,113 156,112 158,111 159,111 161,110 163,109 165,108 167,107 168,106 170,105 172,105 174,104 176,103 177,102 179,101 181,100 183,99 184,98 186,97 188,96 190,95 191,94 193,93 195,92 196,91 198,90 200,89 202,88 203,87 205,86 207,85 208,84 210,82 212,81 213,80 215,79 217,78 218,77 220,76 221,74 223,73 225,72 226,71 228,70 229,68 231,67 233,66 234,65 236,63 237,62 239,61 240,60 242,58 243,57 245,56 247,54 248,53 250,52 251,51 252,49 254,48 255,46 257,45 258,44 260,42 261,41 263,40 264,38 265,37 " />
<polyline fill="none" vector-effect="non-scaling-stroke" points="323,32 309,19 " />
<polyline fill="none" vector-effect="non-scaling-stroke" points="309,19 296,6 " />
<polyline fill="none" vector-effect="non-scaling-stroke" points="278,51 265,37 " />
<polyline fill="none" vector-effect="non-scaling-stroke" points="265,37 251,24 " />
<polyline fill="none" vector-effect="non-scaling-stroke" points="128,112 124,114 " />
<polyline fill="none" vector-effect="non-scaling-stroke" points="119,111 121,113 122,114 124,114 " />
<polyline fill="none" vector-effect="non-scaling-stroke" points="119,111 119,110 " />
<polyline fill="none" vector-effect="non-scaling-stroke" points="126,107 125,105 123,105 121,105 119,106 119,107 119,109 119,110 " />
<polyline fill="none" vector-effect="non-scaling-stroke" points="126,107 128,112 " />
<polyline fill="none" vector-effect="non-scaling-stroke" points="125,121 127,120 128,118 128,116 128,114 128,112 " />
<polyline fill="none" vector-effect="non-scaling-stroke" points="131,105 133,100 " />
<polyline fill="none" vector-effect="non-scaling-stroke" points="133,100 139,115 " />
<polyline fill="none" vector-effect="non-scaling-stroke" points="139,99 138,98 " />
<polyline fill="none" vector-effect="non-scaling-stroke" points="138,98 145,95 " />
<polyline fill="none" vector-effect="non-scaling-stroke" points="145,95 148,112 " />
<polyline fill="none" vector-effect="non-scaling-stroke" points="154,91 155,105 " />
<polyline fill="none" vector-effect="non-scaling-stroke" points="155,105 164,101 " />
<polyline fill="none" vector-effect="non-scaling-stroke" points="160,99 163,106 " />
</g>
</g>
</svg>
