<?xml version="1.0" encoding="UTF-8" standalone="no"?>
<svg width="117.475mm" height="58.5611mm"
 viewBox="0 0 333 166"
 xmlns="http://www.w3.org/2000/svg" xmlns:xlink="http://www.w3.org/1999/xlink"  version="1.2" baseProfile="tiny">
<title>Qt Svg Document</title>
<desc>Generated with Qt</desc>
<defs>
</defs>
<g fill="none" stroke="black" stroke-width="1" fill-rule="evenodd" stroke-linecap="square" stroke-linejoin="bevel" >

<g fill="#ffffff" fill-opacity="1" stroke="none" transform="matrix(1,0,0,1,0,0)"
font-family="Open Sans" font-size="10" font-weight="400" font-style="normal" 
>
<path vector-effect="non-scaling-stroke" fill-rule="evenodd" d="M0,0 L333,0 L333,166 L0,166 L0,0"/>
</g>

<g fill="none" stroke="#000000" stroke-opacity="1" stroke-width="1" stroke-linecap="round" stroke-linejoin="round" transform="matrix(1,0,0,1,0,0)"
font-family="Open Sans" font-size="10" font-weight="400" font-style="normal" 
>
<polyline fill="none" vector-effect="non-scaling-stroke" points="309,148 308,147 306,145 305,144 304,142 302,141 301,140 299,138 298,137 296,136 295,134 293,133 292,131 290,130 289,129 287,128 286,126 284,125 283,124 281,122 280,121 278,120 277,119 275,117 274,116 272,115 270,114 269,112 267,111 266,110 264,109 262,107 261,106 259,105 258,104 256,103 254,102 253,100 251,99 249,98 248,97 246,96 244,95 243,94 241,93 239,92 238,90 236,89 234,88 233,87 231,86 229,85 228,84 226,83 224,82 222,81 221,80 219,79 217,78 215,77 214,76 212,75 210,74 208,73 207,72 205,71 203,71 201,70 199,69 198,68 196,67 194,66 192,65 190,64 189,64 187,63 185,62 183,61 181,60 180,59 178,59 176,58 174,57 172,56 170,56 168,55 167,54 165,53 163,53 161,52 159,51 157,50 155,50 154,49 152,48 150,48 148,47 146,46 144,46 142,45 140,45 138,44 136,43 135,43 133,42 131,42 129,41 127,40 125,40 123,39 121,39 119,38 117,38 115,37 113,37 111,36 109,36 108,35 106,35 104,34 102,34 100,34 98,33 96,33 94,32 92,32 90,32 88,31 86,31 84,31 82,30 80,30 78,30 76,29 74,29 72,29 70,28 68,28 66,28 64,27 62,27 60,27 58,27 56,27 54,26 52,26 50,26 48,26 46,26 44,25 42,25 40,25 38,25 36,25 34,25 32,25 30,24 28,24 26,24 24,24 22,24 20,24 18,24 16,24 14,24 12,24 10,24 " />
<polyline fill="none" vector-effect="non-scaling-stroke" points="10,5 10,24 " />
<polyline fill="none" vector-effect="non-scaling-stroke" points="10,24 10,43 " />
<polyline fill="none" vector-effect="non-scaling-stroke" points="265,130 263,128 262,127 260,125 259,124 258,123 256,121 255,120 253,118 252,117 250,116 249,114 247,113 246,112 244,110 243,109 241,108 240,107 238,105 236,104 235,103 233,102 232,100 230,99 229,98 227,97 225,96 224,94 222,93 221,92 219,91 217,90 216,89 214,87 212,86 211,85 209,84 207,83 206,82 204,81 202,80 201,79 199,78 197,76 196,75 194,74 192,73 190,72 189,71 187,70 185,69 183,68 182,68 180,67 178,66 176,65 175,64 173,63 171,62 169,61 167,60 166,59 164,58 162,58 160,57 158,56 157,55 155,54 153,54 151,53 149,52 147,51 146,50 144,50 142,49 140,48 138,48 136,47 134,46 132,45 131,45 129,44 127,43 125,43 123,42 121,42 119,41 117,40 115,40 113,39 112,39 110,38 108,37 106,37 104,36 102,36 100,35 98,35 96,34 94,34 92,34 90,33 88,33 86,32 84,32 82,31 80,31 79,31 77,30 75,30 73,29 71,29 69,29 67,28 65,28 63,28 61,28 59,27 57,27 55,27 53,27 51,26 49,26 47,26 45,26 43,26 41,25 39,25 37,25 35,25 33,25 31,25 29,24 27,24 25,24 23,24 21,24 19,24 17,24 15,24 13,24 11,24 10,24 " />
<polyline fill="none" vector-effect="non-scaling-stroke" points="323,135 309,148 " />
<polyline fill="none" vector-effect="non-scaling-stroke" points="309,148 296,161 " />
<polyline fill="none" vector-effect="non-scaling-stroke" points="278,116 265,130 " />
<polyline fill="none" vector-effect="non-scaling-stroke" points="265,130 251,143 " />
<polyline fill="none" vector-effect="non-scaling-stroke" points="128,57 125,56 " />
<polyline fill="none" vector-effect="non-scaling-stroke" points="122,51 122,53 123,54 124,55 125,56 " />
<polyline fill="none" vector-effect="non-scaling-stroke" points="122,51 123,49 " />
<polyline fill="none" vector-effect="non-scaling-stroke" points="130,52 130,50 130,48 128,47 127,47 125,47 123,48 123,49 " />
<polyline fill="none" vector-effect="non-scaling-stroke" points="130,52 128,57 " />
<polyline fill="none" vector-effect="non-scaling-stroke" points="120,62 122,62 124,61 126,60 127,59 128,57 " />
<polyline fill="none" vector-effect="non-scaling-stroke" points="135,54 140,52 " />
<polyline fill="none" vector-effect="non-scaling-stroke" points="140,52 134,68 " />
<polyline fill="none" vector-effect="non-scaling-stroke" points="145,56 145,54 " />
<polyline fill="none" vector-effect="non-scaling-stroke" points="145,54 152,57 " />
<polyline fill="none" vector-effect="non-scaling-stroke" points="152,57 142,71 " />
<polyline fill="none" vector-effect="non-scaling-stroke" points="164,62 158,59 " />
<polyline fill="none" vector-effect="non-scaling-stroke" points="158,59 155,66 " />
<polyline fill="none" vector-effect="non-scaling-stroke" points="155,66 158,67 " />
<polyline fill="none" vector-effect="non-scaling-stroke" points="160,72 160,71 160,69 158,68 158,67 " />
<polyline fill="none" vector-effect="non-scaling-stroke" points="160,72 159,74 " />
<polyline fill="none" vector-effect="non-scaling-stroke" points="155,76 156,76 158,76 159,74 " />
<polyline fill="none" vector-effect="non-scaling-stroke" points="155,76 151,75 " />
</g>
</g>
</svg>
