<?xml version="1.0" encoding="UTF-8" standalone="no"?>
<svg width="73.3778mm" height="14.1111mm"
 viewBox="0 0 208 40"
 xmlns="http://www.w3.org/2000/svg" xmlns:xlink="http://www.w3.org/1999/xlink"  version="1.2" baseProfile="tiny">
<title>Qt Svg Document</title>
<desc>Generated with Qt</desc>
<defs>
</defs>
<g fill="none" stroke="black" stroke-width="1" fill-rule="evenodd" stroke-linecap="square" stroke-linejoin="bevel" >

<g fill="#ffffff" fill-opacity="1" stroke="none" transform="matrix(1,0,0,1,0,0)"
font-family="Droid Sans" font-size="10" font-weight="400" font-style="normal" 
>
<path vector-effect="non-scaling-stroke" fill-rule="evenodd" d="M0,0 L208,0 L208,40 L0,40 L0,0"/>
</g>

<g fill="none" stroke="#000000" stroke-opacity="1" stroke-width="1" stroke-linecap="round" stroke-linejoin="round" transform="matrix(1,0,0,1,0,0)"
font-family="Droid Sans" font-size="10" font-weight="400" font-style="normal" 
>
<polyline fill="none" vector-effect="non-scaling-stroke" points="25,35 25,5 " />
<polyline fill="none" vector-effect="non-scaling-stroke" points="25,20 181,20 " />
<polyline fill="none" vector-effect="non-scaling-stroke" points="181,35 181,5 " />
<polyline fill="none" vector-effect="non-scaling-stroke" points="79,22 79,21 " />
<polyline fill="none" vector-effect="non-scaling-stroke" points="84,24 84,23 84,21 83,20 82,20 80,20 79,21 " />
<polyline fill="none" vector-effect="non-scaling-stroke" points="84,24 79,32 " />
<polyline fill="none" vector-effect="non-scaling-stroke" points="79,32 84,32 " />
<polyline fill="none" vector-effect="non-scaling-stroke" points="88,22 88,21 " />
<polyline fill="none" vector-effect="non-scaling-stroke" points="93,24 93,23 93,21 92,20 91,20 90,20 89,21 88,21 " />
<polyline fill="none" vector-effect="non-scaling-stroke" points="93,24 88,32 " />
<polyline fill="none" vector-effect="non-scaling-stroke" points="88,32 93,32 " />
<polyline fill="none" vector-effect="non-scaling-stroke" points="97,22 98,21 " />
<polyline fill="none" vector-effect="non-scaling-stroke" points="102,24 103,23 102,21 101,20 100,20 99,20 98,21 " />
<polyline fill="none" vector-effect="non-scaling-stroke" points="102,24 97,32 " />
<polyline fill="none" vector-effect="non-scaling-stroke" points="97,32 103,32 " />
<polyline fill="none" vector-effect="non-scaling-stroke" points="111,21 110,20 109,20 108,20 108,21 " />
<polyline fill="none" vector-effect="non-scaling-stroke" points="108,21 107,23 107,24 107,26 107,28 108,30 108,31 " />
<polyline fill="none" vector-effect="non-scaling-stroke" points="108,31 109,32 109,32 110,32 111,31 " />
<polyline fill="none" vector-effect="non-scaling-stroke" points="111,31 111,29 112,28 112,26 112,24 111,22 111,21 " />
<polyline fill="none" vector-effect="non-scaling-stroke" points="116,20 119,20 " />
<polyline fill="none" vector-effect="non-scaling-stroke" points="119,25 120,25 121,24 121,23 121,22 120,21 119,20 " />
<polyline fill="none" vector-effect="non-scaling-stroke" points="117,25 119,25 " />
<polyline fill="none" vector-effect="non-scaling-stroke" points="121,28 121,27 120,26 119,25 " />
<polyline fill="none" vector-effect="non-scaling-stroke" points="121,28 121,29 " />
<polyline fill="none" vector-effect="non-scaling-stroke" points="119,32 120,32 121,31 121,30 121,29 " />
<polyline fill="none" vector-effect="non-scaling-stroke" points="119,32 116,32 " />
</g>
</g>
</svg>
