<?xml version="1.0" encoding="UTF-8" standalone="no"?>
<svg width="35.2778mm" height="14.1111mm"
 viewBox="0 0 100 40"
 xmlns="http://www.w3.org/2000/svg" xmlns:xlink="http://www.w3.org/1999/xlink"  version="1.2" baseProfile="tiny">
<title>Qt Svg Document</title>
<desc>Generated with Qt</desc>
<defs>
</defs>
<g fill="none" stroke="black" stroke-width="1" fill-rule="evenodd" stroke-linecap="square" stroke-linejoin="bevel" >

<g fill="#ffffff" fill-opacity="1" stroke="none" transform="matrix(1,0,0,1,0,0)"
font-family="Droid Sans" font-size="10" font-weight="400" font-style="normal" 
>
<path vector-effect="non-scaling-stroke" fill-rule="evenodd" d="M0,0 L100,0 L100,40 L0,40 L0,0"/>
</g>

<g fill="none" stroke="#000000" stroke-opacity="1" stroke-width="1" stroke-linecap="round" stroke-linejoin="round" transform="matrix(1,0,0,1,0,0)"
font-family="Droid Sans" font-size="10" font-weight="400" font-style="normal" 
>
<polyline fill="none" vector-effect="non-scaling-stroke" points="12,35 12,5 " />
<polyline fill="none" vector-effect="non-scaling-stroke" points="12,20 87,20 " />
<polyline fill="none" vector-effect="non-scaling-stroke" points="87,35 87,5 " />
<polyline fill="none" vector-effect="non-scaling-stroke" points="28,22 29,21 " />
<polyline fill="none" vector-effect="non-scaling-stroke" points="33,24 33,23 33,21 32,20 31,20 30,20 29,21 " />
<polyline fill="none" vector-effect="non-scaling-stroke" points="33,24 28,32 " />
<polyline fill="none" vector-effect="non-scaling-stroke" points="28,32 33,32 " />
<polyline fill="none" vector-effect="non-scaling-stroke" points="37,22 38,21 " />
<polyline fill="none" vector-effect="non-scaling-stroke" points="42,24 43,23 43,21 42,20 40,20 39,20 38,21 " />
<polyline fill="none" vector-effect="non-scaling-stroke" points="42,24 37,32 " />
<polyline fill="none" vector-effect="non-scaling-stroke" points="37,32 43,32 " />
<polyline fill="none" vector-effect="non-scaling-stroke" points="47,22 47,21 " />
<polyline fill="none" vector-effect="non-scaling-stroke" points="52,24 52,23 52,21 51,20 50,20 48,20 47,21 " />
<polyline fill="none" vector-effect="non-scaling-stroke" points="52,24 47,32 " />
<polyline fill="none" vector-effect="non-scaling-stroke" points="47,32 52,32 " />
<polyline fill="none" vector-effect="non-scaling-stroke" points="60,21 60,20 59,20 58,20 57,21 " />
<polyline fill="none" vector-effect="non-scaling-stroke" points="57,21 57,23 56,24 56,26 56,28 57,30 57,31 " />
<polyline fill="none" vector-effect="non-scaling-stroke" points="57,31 58,32 59,32 60,32 60,31 " />
<polyline fill="none" vector-effect="non-scaling-stroke" points="60,31 61,29 61,28 61,26 61,24 61,22 60,21 " />
<polyline fill="none" vector-effect="non-scaling-stroke" points="71,20 65,20 " />
<polyline fill="none" vector-effect="non-scaling-stroke" points="65,20 65,25 " />
<polyline fill="none" vector-effect="non-scaling-stroke" points="65,25 68,25 " />
<polyline fill="none" vector-effect="non-scaling-stroke" points="71,28 71,27 70,26 68,25 " />
<polyline fill="none" vector-effect="non-scaling-stroke" points="71,28 71,29 " />
<polyline fill="none" vector-effect="non-scaling-stroke" points="68,32 69,32 70,31 71,30 71,29 " />
<polyline fill="none" vector-effect="non-scaling-stroke" points="68,32 65,32 " />
</g>
</g>
</svg>
