<?xml version="1.0" encoding="UTF-8" standalone="no"?>
<svg width="220.486mm" height="14.1111mm"
 viewBox="0 0 625 40"
 xmlns="http://www.w3.org/2000/svg" xmlns:xlink="http://www.w3.org/1999/xlink"  version="1.2" baseProfile="tiny">
<title>Qt Svg Document</title>
<desc>Generated with Qt</desc>
<defs>
</defs>
<g fill="none" stroke="black" stroke-width="1" fill-rule="evenodd" stroke-linecap="square" stroke-linejoin="bevel" >

<g fill="#ffffff" fill-opacity="1" stroke="none" transform="matrix(1,0,0,1,0,0)"
font-family="Droid Sans" font-size="10" font-weight="400" font-style="normal" 
>
<path vector-effect="non-scaling-stroke" fill-rule="evenodd" d="M0,0 L625,0 L625,40 L0,40 L0,0"/>
</g>

<g fill="none" stroke="#000000" stroke-opacity="1" stroke-width="1" stroke-linecap="round" stroke-linejoin="round" transform="matrix(1,0,0,1,0,0)"
font-family="Droid Sans" font-size="10" font-weight="400" font-style="normal" 
>
<polyline fill="none" vector-effect="non-scaling-stroke" points="78,35 78,5 " />
<polyline fill="none" vector-effect="non-scaling-stroke" points="78,20 547,20 " />
<polyline fill="none" vector-effect="non-scaling-stroke" points="547,35 547,5 " />
<polyline fill="none" vector-effect="non-scaling-stroke" points="291,22 291,21 " />
<polyline fill="none" vector-effect="non-scaling-stroke" points="296,24 296,23 296,21 295,20 294,20 293,20 292,21 291,21 " />
<polyline fill="none" vector-effect="non-scaling-stroke" points="296,24 291,32 " />
<polyline fill="none" vector-effect="non-scaling-stroke" points="291,32 296,32 " />
<polyline fill="none" vector-effect="non-scaling-stroke" points="300,22 301,21 " />
<polyline fill="none" vector-effect="non-scaling-stroke" points="305,24 306,23 305,21 305,20 303,20 302,20 301,21 " />
<polyline fill="none" vector-effect="non-scaling-stroke" points="305,24 300,32 " />
<polyline fill="none" vector-effect="non-scaling-stroke" points="300,32 306,32 " />
<polyline fill="none" vector-effect="non-scaling-stroke" points="310,22 310,21 " />
<polyline fill="none" vector-effect="non-scaling-stroke" points="315,24 315,23 315,21 314,20 313,20 311,20 310,21 " />
<polyline fill="none" vector-effect="non-scaling-stroke" points="315,24 310,32 " />
<polyline fill="none" vector-effect="non-scaling-stroke" points="310,32 315,32 " />
<polyline fill="none" vector-effect="non-scaling-stroke" points="323,21 322,20 322,20 321,20 320,21 " />
<polyline fill="none" vector-effect="non-scaling-stroke" points="320,21 320,23 319,24 319,26 319,28 320,30 320,31 " />
<polyline fill="none" vector-effect="non-scaling-stroke" points="320,31 321,32 322,32 323,32 323,31 " />
<polyline fill="none" vector-effect="non-scaling-stroke" points="323,31 324,29 324,28 324,26 324,24 324,22 323,21 " />
<polyline fill="none" vector-effect="non-scaling-stroke" points="328,22 329,21 " />
<polyline fill="none" vector-effect="non-scaling-stroke" points="333,24 334,23 333,21 333,20 331,20 330,20 329,21 " />
<polyline fill="none" vector-effect="non-scaling-stroke" points="333,24 328,32 " />
<polyline fill="none" vector-effect="non-scaling-stroke" points="328,32 334,32 " />
</g>
</g>
</svg>
