<?xml version="1.0" encoding="UTF-8" standalone="no"?>
<svg width="23.6361mm" height="14.1111mm"
 viewBox="0 0 67 40"
 xmlns="http://www.w3.org/2000/svg" xmlns:xlink="http://www.w3.org/1999/xlink"  version="1.2" baseProfile="tiny">
<title>Qt Svg Document</title>
<desc>Generated with Qt</desc>
<defs>
</defs>
<g fill="none" stroke="black" stroke-width="1" fill-rule="evenodd" stroke-linecap="square" stroke-linejoin="bevel" >

<g fill="#ffffff" fill-opacity="1" stroke="none" transform="matrix(1,0,0,1,0,0)"
font-family="Droid Sans" font-size="10" font-weight="400" font-style="normal" 
>
<path vector-effect="non-scaling-stroke" fill-rule="evenodd" d="M0,0 L67,0 L67,40 L0,40 L0,0"/>
</g>

<g fill="none" stroke="#000000" stroke-opacity="1" stroke-width="1" stroke-linecap="round" stroke-linejoin="round" transform="matrix(1,0,0,1,0,0)"
font-family="Droid Sans" font-size="10" font-weight="400" font-style="normal" 
>
<polyline fill="none" vector-effect="non-scaling-stroke" points="8,35 8,5 " />
<polyline fill="none" vector-effect="non-scaling-stroke" points="8,20 58,20 " />
<polyline fill="none" vector-effect="non-scaling-stroke" points="58,35 58,5 " />
<polyline fill="none" vector-effect="non-scaling-stroke" points="12,22 12,21 " />
<polyline fill="none" vector-effect="non-scaling-stroke" points="17,24 17,23 17,21 16,20 15,20 13,20 12,21 " />
<polyline fill="none" vector-effect="non-scaling-stroke" points="17,24 12,32 " />
<polyline fill="none" vector-effect="non-scaling-stroke" points="12,32 17,32 " />
<polyline fill="none" vector-effect="non-scaling-stroke" points="21,22 22,21 " />
<polyline fill="none" vector-effect="non-scaling-stroke" points="26,24 27,23 26,21 25,20 24,20 23,20 22,21 " />
<polyline fill="none" vector-effect="non-scaling-stroke" points="26,24 21,32 " />
<polyline fill="none" vector-effect="non-scaling-stroke" points="21,32 27,32 " />
<polyline fill="none" vector-effect="non-scaling-stroke" points="31,22 31,21 " />
<polyline fill="none" vector-effect="non-scaling-stroke" points="36,24 36,23 36,21 35,20 33,20 32,20 31,21 " />
<polyline fill="none" vector-effect="non-scaling-stroke" points="36,24 31,32 " />
<polyline fill="none" vector-effect="non-scaling-stroke" points="31,32 36,32 " />
<polyline fill="none" vector-effect="non-scaling-stroke" points="44,21 43,20 42,20 42,20 41,21 " />
<polyline fill="none" vector-effect="non-scaling-stroke" points="41,21 40,23 40,24 40,26 40,28 41,30 41,31 " />
<polyline fill="none" vector-effect="non-scaling-stroke" points="41,31 42,32 43,32 43,32 44,31 " />
<polyline fill="none" vector-effect="non-scaling-stroke" points="44,31 45,29 45,28 45,26 45,24 44,22 44,21 " />
<polyline fill="none" vector-effect="non-scaling-stroke" points="49,25 52,25 " />
<polyline fill="none" vector-effect="non-scaling-stroke" points="55,28 54,27 53,26 52,25 " />
<polyline fill="none" vector-effect="non-scaling-stroke" points="55,28 55,29 " />
<polyline fill="none" vector-effect="non-scaling-stroke" points="49,29 50,31 50,32 52,32 53,32 54,31 55,30 55,29 " />
<polyline fill="none" vector-effect="non-scaling-stroke" points="49,29 49,25 " />
<polyline fill="none" vector-effect="non-scaling-stroke" points="53,20 51,21 50,22 49,24 49,25 " />
</g>
</g>
</svg>
