<?xml version="1.0" encoding="UTF-8" standalone="no"?>
<svg width="20.1083mm" height="14.1111mm"
 viewBox="0 0 57 40"
 xmlns="http://www.w3.org/2000/svg" xmlns:xlink="http://www.w3.org/1999/xlink"  version="1.2" baseProfile="tiny">
<title>Qt Svg Document</title>
<desc>Generated with Qt</desc>
<defs>
</defs>
<g fill="none" stroke="black" stroke-width="1" fill-rule="evenodd" stroke-linecap="square" stroke-linejoin="bevel" >

<g fill="#ffffff" fill-opacity="1" stroke="none" transform="matrix(1,0,0,1,0,0)"
font-family="Droid Sans" font-size="10" font-weight="400" font-style="normal" 
>
<path vector-effect="non-scaling-stroke" fill-rule="evenodd" d="M0,0 L57,0 L57,40 L0,40 L0,0"/>
</g>

<g fill="none" stroke="#000000" stroke-opacity="1" stroke-width="1" stroke-linecap="round" stroke-linejoin="round" transform="matrix(1,0,0,1,0,0)"
font-family="Droid Sans" font-size="10" font-weight="400" font-style="normal" 
>
<polyline fill="none" vector-effect="non-scaling-stroke" points="19,35 19,5 " />
<polyline fill="none" vector-effect="non-scaling-stroke" points="19,20 37,20 " />
<polyline fill="none" vector-effect="non-scaling-stroke" points="37,35 37,5 " />
<polyline fill="none" vector-effect="non-scaling-stroke" points="7,22 7,21 " />
<polyline fill="none" vector-effect="non-scaling-stroke" points="12,24 12,23 12,21 11,20 10,20 8,20 7,21 " />
<polyline fill="none" vector-effect="non-scaling-stroke" points="12,24 7,32 " />
<polyline fill="none" vector-effect="non-scaling-stroke" points="7,32 12,32 " />
<polyline fill="none" vector-effect="non-scaling-stroke" points="16,22 17,21 " />
<polyline fill="none" vector-effect="non-scaling-stroke" points="21,24 21,23 21,21 20,20 19,20 18,20 17,21 " />
<polyline fill="none" vector-effect="non-scaling-stroke" points="21,24 16,32 " />
<polyline fill="none" vector-effect="non-scaling-stroke" points="16,32 21,32 " />
<polyline fill="none" vector-effect="non-scaling-stroke" points="25,22 26,21 " />
<polyline fill="none" vector-effect="non-scaling-stroke" points="30,24 31,23 31,21 30,20 28,20 27,20 26,21 " />
<polyline fill="none" vector-effect="non-scaling-stroke" points="30,24 25,32 " />
<polyline fill="none" vector-effect="non-scaling-stroke" points="25,32 31,32 " />
<polyline fill="none" vector-effect="non-scaling-stroke" points="39,21 38,20 37,20 37,20 36,21 " />
<polyline fill="none" vector-effect="non-scaling-stroke" points="36,21 35,23 35,24 35,26 35,28 36,30 36,31 " />
<polyline fill="none" vector-effect="non-scaling-stroke" points="36,31 37,32 38,32 38,32 39,31 " />
<polyline fill="none" vector-effect="non-scaling-stroke" points="39,31 40,29 40,28 40,26 40,24 39,22 39,21 " />
<polyline fill="none" vector-effect="non-scaling-stroke" points="44,21 44,20 " />
<polyline fill="none" vector-effect="non-scaling-stroke" points="44,20 49,20 " />
<polyline fill="none" vector-effect="non-scaling-stroke" points="49,20 47,32 " />
</g>
</g>
</svg>
