<?xml version="1.0" encoding="UTF-8" standalone="no"?>
<svg width="38.1mm" height="14.1111mm"
 viewBox="0 0 108 40"
 xmlns="http://www.w3.org/2000/svg" xmlns:xlink="http://www.w3.org/1999/xlink"  version="1.2" baseProfile="tiny">
<title>Qt Svg Document</title>
<desc>Generated with Qt</desc>
<defs>
</defs>
<g fill="none" stroke="black" stroke-width="1" fill-rule="evenodd" stroke-linecap="square" stroke-linejoin="bevel" >

<g fill="#ffffff" fill-opacity="1" stroke="none" transform="matrix(1,0,0,1,0,0)"
font-family="Droid Sans" font-size="10" font-weight="400" font-style="normal" 
>
<path vector-effect="non-scaling-stroke" fill-rule="evenodd" d="M0,0 L108,0 L108,40 L0,40 L0,0"/>
</g>

<g fill="none" stroke="#000000" stroke-opacity="1" stroke-width="1" stroke-linecap="round" stroke-linejoin="round" transform="matrix(1,0,0,1,0,0)"
font-family="Droid Sans" font-size="10" font-weight="400" font-style="normal" 
>
<polyline fill="none" vector-effect="non-scaling-stroke" points="13,35 13,5 " />
<polyline fill="none" vector-effect="non-scaling-stroke" points="13,20 94,20 " />
<polyline fill="none" vector-effect="non-scaling-stroke" points="94,35 94,5 " />
<polyline fill="none" vector-effect="non-scaling-stroke" points="32,22 32,21 " />
<polyline fill="none" vector-effect="non-scaling-stroke" points="37,24 37,23 37,21 36,20 35,20 33,20 32,21 " />
<polyline fill="none" vector-effect="non-scaling-stroke" points="37,24 32,32 " />
<polyline fill="none" vector-effect="non-scaling-stroke" points="32,32 37,32 " />
<polyline fill="none" vector-effect="non-scaling-stroke" points="41,22 41,21 " />
<polyline fill="none" vector-effect="non-scaling-stroke" points="46,24 46,23 46,21 45,20 44,20 43,20 42,21 41,21 " />
<polyline fill="none" vector-effect="non-scaling-stroke" points="46,24 41,32 " />
<polyline fill="none" vector-effect="non-scaling-stroke" points="41,32 46,32 " />
<polyline fill="none" vector-effect="non-scaling-stroke" points="50,22 51,21 " />
<polyline fill="none" vector-effect="non-scaling-stroke" points="55,24 56,23 55,21 54,20 53,20 52,20 51,21 " />
<polyline fill="none" vector-effect="non-scaling-stroke" points="55,24 50,32 " />
<polyline fill="none" vector-effect="non-scaling-stroke" points="50,32 56,32 " />
<polyline fill="none" vector-effect="non-scaling-stroke" points="64,21 63,20 62,20 61,20 61,21 " />
<polyline fill="none" vector-effect="non-scaling-stroke" points="61,21 60,23 60,24 60,26 60,28 61,30 61,31 " />
<polyline fill="none" vector-effect="non-scaling-stroke" points="61,31 62,32 62,32 63,32 64,31 " />
<polyline fill="none" vector-effect="non-scaling-stroke" points="64,31 64,29 65,28 65,26 65,24 64,22 64,21 " />
<polyline fill="none" vector-effect="non-scaling-stroke" points="72,20 69,29 " />
<polyline fill="none" vector-effect="non-scaling-stroke" points="69,29 76,29 " />
<polyline fill="none" vector-effect="non-scaling-stroke" points="74,27 74,32 " />
</g>
</g>
</svg>
