<?xml version="1.0" encoding="UTF-8" standalone="no"?>
<svg width="95.9556mm" height="37.7472mm"
 viewBox="0 0 272 107"
 xmlns="http://www.w3.org/2000/svg" xmlns:xlink="http://www.w3.org/1999/xlink"  version="1.2" baseProfile="tiny">
<title>Qt Svg Document</title>
<desc>Generated with Qt</desc>
<defs>
</defs>
<g fill="none" stroke="black" stroke-width="1" fill-rule="evenodd" stroke-linecap="square" stroke-linejoin="bevel" >

<g fill="#ffffff" fill-opacity="1" stroke="none" transform="matrix(1,0,0,1,0,0)"
font-family="Droid Sans" font-size="10" font-weight="400" font-style="normal" 
>
<path vector-effect="non-scaling-stroke" fill-rule="evenodd" d="M0,0 L272,0 L272,107 L0,107 L0,0"/>
</g>

<g fill="none" stroke="#000000" stroke-opacity="1" stroke-width="1" stroke-linecap="round" stroke-linejoin="round" transform="matrix(1,0,0,1,0,0)"
font-family="Droid Sans" font-size="10" font-weight="400" font-style="normal" 
>
<polyline fill="none" vector-effect="non-scaling-stroke" points="13,42 13,6 " />
<polyline fill="none" vector-effect="non-scaling-stroke" points="249,87 248,86 246,85 244,84 242,83 241,82 239,81 237,80 235,80 234,79 232,78 230,77 228,76 226,75 225,74 223,73 221,72 219,71 217,71 216,70 214,69 212,68 210,67 208,66 207,65 205,65 203,64 201,63 199,62 197,61 196,61 194,60 192,59 190,58 188,58 186,57 184,56 183,55 181,55 179,54 177,53 175,53 173,52 171,51 169,51 168,50 166,49 164,49 162,48 160,47 158,47 156,46 154,46 152,45 150,44 149,44 147,43 145,43 143,42 141,42 139,41 137,41 135,40 133,40 131,39 129,39 127,38 125,38 123,37 121,37 120,36 118,36 116,35 114,35 112,34 110,34 108,34 106,33 104,33 102,32 100,32 98,32 96,31 94,31 92,31 90,30 88,30 86,30 84,29 82,29 80,29 78,29 76,28 74,28 72,28 70,27 68,27 66,27 64,27 62,27 60,26 58,26 56,26 54,26 52,26 50,25 48,25 46,25 44,25 42,25 40,25 38,25 36,25 34,24 32,24 30,24 28,24 26,24 24,24 22,24 20,24 18,24 16,24 14,24 13,24 " />
<polyline fill="none" vector-effect="non-scaling-stroke" points="258,72 240,103 " />
<polyline fill="none" vector-effect="non-scaling-stroke" points="110,36 111,35 " />
<polyline fill="none" vector-effect="non-scaling-stroke" points="115,40 116,38 116,37 115,35 114,34 112,34 111,35 " />
<polyline fill="none" vector-effect="non-scaling-stroke" points="115,40 107,47 " />
<polyline fill="none" vector-effect="non-scaling-stroke" points="107,47 113,49 " />
<polyline fill="none" vector-effect="non-scaling-stroke" points="121,39 121,38 " />
<polyline fill="none" vector-effect="non-scaling-stroke" points="126,43 127,41 127,40 126,38 125,37 123,37 122,38 121,38 " />
<polyline fill="none" vector-effect="non-scaling-stroke" points="126,43 118,50 " />
<polyline fill="none" vector-effect="non-scaling-stroke" points="118,50 124,52 " />
<polyline fill="none" vector-effect="non-scaling-stroke" points="132,42 132,41 " />
<polyline fill="none" vector-effect="non-scaling-stroke" points="137,45 138,44 138,43 137,41 136,40 134,40 133,41 132,41 " />
<polyline fill="none" vector-effect="non-scaling-stroke" points="137,45 128,53 " />
<polyline fill="none" vector-effect="non-scaling-stroke" points="128,53 135,55 " />
<polyline fill="none" vector-effect="non-scaling-stroke" points="142,45 143,44 " />
<polyline fill="none" vector-effect="non-scaling-stroke" points="148,48 148,47 148,45 148,44 146,43 145,43 143,44 " />
<polyline fill="none" vector-effect="non-scaling-stroke" points="148,48 139,56 " />
<polyline fill="none" vector-effect="non-scaling-stroke" points="139,56 146,58 " />
<polyline fill="none" vector-effect="non-scaling-stroke" points="154,45 157,46 " />
<polyline fill="none" vector-effect="non-scaling-stroke" points="155,52 157,52 158,51 159,50 159,48 159,47 157,46 " />
<polyline fill="none" vector-effect="non-scaling-stroke" points="154,52 155,52 " />
<polyline fill="none" vector-effect="non-scaling-stroke" points="158,56 158,54 157,53 156,52 155,52 " />
<polyline fill="none" vector-effect="non-scaling-stroke" points="158,56 157,58 " />
<polyline fill="none" vector-effect="non-scaling-stroke" points="153,60 155,60 156,59 157,58 " />
<polyline fill="none" vector-effect="non-scaling-stroke" points="153,60 150,59 " />
</g>
</g>
</svg>
