<?xml version="1.0" encoding="UTF-8" standalone="no"?>
<svg width="83.9611mm" height="34.5722mm"
 viewBox="0 0 238 98"
 xmlns="http://www.w3.org/2000/svg" xmlns:xlink="http://www.w3.org/1999/xlink"  version="1.2" baseProfile="tiny">
<title>Qt Svg Document</title>
<desc>Generated with Qt</desc>
<defs>
</defs>
<g fill="none" stroke="black" stroke-width="1" fill-rule="evenodd" stroke-linecap="square" stroke-linejoin="bevel" >

<g fill="#ffffff" fill-opacity="1" stroke="none" transform="matrix(1,0,0,1,0,0)"
font-family="Droid Sans" font-size="10" font-weight="400" font-style="normal" 
>
<path vector-effect="non-scaling-stroke" fill-rule="evenodd" d="M0,0 L238,0 L238,98 L0,98 L0,0"/>
</g>

<g fill="none" stroke="#000000" stroke-opacity="1" stroke-width="1" stroke-linecap="round" stroke-linejoin="round" transform="matrix(1,0,0,1,0,0)"
font-family="Droid Sans" font-size="10" font-weight="400" font-style="normal" 
>
<polyline fill="none" vector-effect="non-scaling-stroke" points="12,41 12,5 " />
<polyline fill="none" vector-effect="non-scaling-stroke" points="216,78 214,77 212,76 211,75 209,74 207,73 205,72 204,71 202,70 200,69 198,68 197,67 195,66 193,65 191,64 189,64 188,63 186,62 184,61 182,60 180,59 179,59 177,58 175,57 173,56 171,55 169,55 168,54 166,53 164,52 162,52 160,51 158,50 156,49 154,49 153,48 151,47 149,47 147,46 145,45 143,45 141,44 139,43 137,43 136,42 134,42 132,41 130,40 128,40 126,39 124,39 122,38 120,38 118,37 116,37 114,36 113,36 111,35 109,35 107,34 105,34 103,33 101,33 99,32 97,32 95,32 93,31 91,31 89,30 87,30 85,30 83,29 81,29 79,29 77,28 75,28 73,28 71,27 69,27 67,27 65,27 63,26 61,26 59,26 57,26 55,25 53,25 52,25 50,25 48,25 46,24 44,24 42,24 40,24 38,24 36,24 34,24 32,23 30,23 28,23 26,23 24,23 22,23 20,23 18,23 16,23 14,23 12,23 " />
<polyline fill="none" vector-effect="non-scaling-stroke" points="225,62 207,93 " />
<polyline fill="none" vector-effect="non-scaling-stroke" points="92,33 93,32 " />
<polyline fill="none" vector-effect="non-scaling-stroke" points="98,36 98,35 98,34 98,32 96,31 95,31 93,32 " />
<polyline fill="none" vector-effect="non-scaling-stroke" points="98,36 89,44 " />
<polyline fill="none" vector-effect="non-scaling-stroke" points="89,44 95,46 " />
<polyline fill="none" vector-effect="non-scaling-stroke" points="103,35 104,35 " />
<polyline fill="none" vector-effect="non-scaling-stroke" points="108,39 109,38 109,36 108,35 107,34 106,34 104,35 " />
<polyline fill="none" vector-effect="non-scaling-stroke" points="108,39 100,47 " />
<polyline fill="none" vector-effect="non-scaling-stroke" points="100,47 106,49 " />
</g>

<g fill="#000000" fill-opacity="1" stroke="none" transform="matrix(1,0,0,1,0,0)"
font-family="Droid Sans" font-size="10" font-weight="400" font-style="normal" 
>
<path vector-effect="non-scaling-stroke" fill-rule="evenodd" d="M114.5,38 C114.5,38.2761 114.276,38.5 114,38.5 C113.724,38.5 113.5,38.2761 113.5,38 C113.5,37.7239 113.724,37.5 114,37.5 C114.276,37.5 114.5,37.7239 114.5,38 "/>
</g>

<g fill="none" stroke="#000000" stroke-opacity="1" stroke-width="1" stroke-linecap="round" stroke-linejoin="round" transform="matrix(1,0,0,1,0,0)"
font-family="Droid Sans" font-size="10" font-weight="400" font-style="normal" 
>
<polyline fill="none" vector-effect="non-scaling-stroke" points="119,42 120,41 120,39 119,38 118,37 116,37 115,37 114,38 " />
<polyline fill="none" vector-effect="non-scaling-stroke" points="119,42 111,50 " />
<polyline fill="none" vector-effect="non-scaling-stroke" points="111,50 117,52 " />
</g>

<g fill="#000000" fill-opacity="1" stroke="none" transform="matrix(1,0,0,1,0,0)"
font-family="Droid Sans" font-size="10" font-weight="400" font-style="normal" 
>
<path vector-effect="non-scaling-stroke" fill-rule="evenodd" d="M125.5,41 C125.5,41.2761 125.276,41.5 125,41.5 C124.724,41.5 124.5,41.2761 124.5,41 C124.5,40.7239 124.724,40.5 125,40.5 C125.276,40.5 125.5,40.7239 125.5,41 "/>
</g>

<g fill="none" stroke="#000000" stroke-opacity="1" stroke-width="1" stroke-linecap="round" stroke-linejoin="round" transform="matrix(1,0,0,1,0,0)"
font-family="Droid Sans" font-size="10" font-weight="400" font-style="normal" 
>
<polyline fill="none" vector-effect="non-scaling-stroke" points="130,45 131,44 131,42 130,41 129,40 127,40 126,40 125,41 " />
<polyline fill="none" vector-effect="non-scaling-stroke" points="130,45 122,53 " />
<polyline fill="none" vector-effect="non-scaling-stroke" points="122,53 128,54 " />
<polyline fill="none" vector-effect="non-scaling-stroke" points="135,44 136,43 " />
<polyline fill="none" vector-effect="non-scaling-stroke" points="140,48 141,47 141,45 141,44 139,43 138,43 136,43 " />
<polyline fill="none" vector-effect="non-scaling-stroke" points="140,48 132,56 " />
<polyline fill="none" vector-effect="non-scaling-stroke" points="132,56 138,57 " />
</g>
</g>
</svg>
