<?xml version="1.0" encoding="UTF-8" standalone="no"?>
<svg width="89.6056mm" height="25.4mm"
 viewBox="0 0 254 72"
 xmlns="http://www.w3.org/2000/svg" xmlns:xlink="http://www.w3.org/1999/xlink"  version="1.2" baseProfile="tiny">
<title>Qt Svg Document</title>
<desc>Generated with Qt</desc>
<defs>
</defs>
<g fill="none" stroke="black" stroke-width="1" fill-rule="evenodd" stroke-linecap="square" stroke-linejoin="bevel" >

<g fill="#ffffff" fill-opacity="1" stroke="none" transform="matrix(1,0,0,1,0,0)"
font-family="Droid Sans" font-size="10" font-weight="400" font-style="normal" 
>
<path vector-effect="non-scaling-stroke" fill-rule="evenodd" d="M0,0 L254,0 L254,72 L0,72 L0,0"/>
</g>

<g fill="none" stroke="#000000" stroke-opacity="1" stroke-width="1" stroke-linecap="round" stroke-linejoin="round" transform="matrix(1,0,0,1,0,0)"
font-family="Droid Sans" font-size="10" font-weight="400" font-style="normal" 
>
<polyline fill="none" vector-effect="non-scaling-stroke" points="231,51 229,51 227,50 225,50 223,49 221,49 219,48 217,48 215,47 213,47 211,46 210,46 208,45 206,45 204,44 202,44 200,43 198,43 196,43 194,42 192,42 190,41 188,41 186,40 184,40 182,40 180,39 178,39 176,39 174,38 172,38 170,37 168,37 167,37 165,36 163,36 161,36 159,35 157,35 155,35 153,34 151,34 149,34 147,33 145,33 143,33 141,32 139,32 137,32 135,31 133,31 131,31 129,31 127,30 125,30 123,30 121,30 119,29 117,29 115,29 113,29 111,28 109,28 107,28 105,28 103,28 101,27 99,27 97,27 95,27 93,27 91,26 89,26 87,26 85,26 83,26 81,26 79,25 77,25 75,25 73,25 71,25 69,25 67,25 65,24 63,24 61,24 59,24 57,24 55,24 53,24 51,24 49,24 47,24 45,23 43,23 41,23 39,23 37,23 35,23 33,23 31,23 29,23 27,23 25,23 23,23 21,23 19,23 17,23 " />
<polyline fill="none" vector-effect="non-scaling-stroke" points="17,6 17,40 " />
<polyline fill="none" vector-effect="non-scaling-stroke" points="235,35 226,68 " />
<polyline fill="none" vector-effect="non-scaling-stroke" points="100,29 101,28 " />
<polyline fill="none" vector-effect="non-scaling-stroke" points="106,32 106,31 106,29 105,28 104,27 102,27 101,28 " />
<polyline fill="none" vector-effect="non-scaling-stroke" points="106,32 99,41 " />
<polyline fill="none" vector-effect="non-scaling-stroke" points="99,41 105,41 " />
<polyline fill="none" vector-effect="non-scaling-stroke" points="111,31 111,30 " />
<polyline fill="none" vector-effect="non-scaling-stroke" points="116,34 117,32 117,31 116,29 115,29 113,29 112,30 111,30 " />
<polyline fill="none" vector-effect="non-scaling-stroke" points="116,34 109,42 " />
<polyline fill="none" vector-effect="non-scaling-stroke" points="109,42 115,43 " />
<polyline fill="none" vector-effect="non-scaling-stroke" points="122,32 122,31 " />
<polyline fill="none" vector-effect="non-scaling-stroke" points="127,35 127,34 127,32 126,31 125,30 124,30 122,31 " />
<polyline fill="none" vector-effect="non-scaling-stroke" points="127,35 120,43 " />
<polyline fill="none" vector-effect="non-scaling-stroke" points="120,43 126,44 " />
<polyline fill="none" vector-effect="non-scaling-stroke" points="132,33 133,33 " />
<polyline fill="none" vector-effect="non-scaling-stroke" points="138,36 138,35 138,33 137,32 136,32 134,32 133,32 133,33 " />
<polyline fill="none" vector-effect="non-scaling-stroke" points="138,36 131,45 " />
<polyline fill="none" vector-effect="non-scaling-stroke" points="131,45 137,46 " />
<polyline fill="none" vector-effect="non-scaling-stroke" points="143,34 143,32 " />
<polyline fill="none" vector-effect="non-scaling-stroke" points="143,32 149,33 " />
<polyline fill="none" vector-effect="non-scaling-stroke" points="149,33 144,47 " />
</g>
</g>
</svg>
