<?xml version="1.0" encoding="UTF-8" standalone="no"?>
<svg width="68.0861mm" height="22.5778mm"
 viewBox="0 0 193 64"
 xmlns="http://www.w3.org/2000/svg" xmlns:xlink="http://www.w3.org/1999/xlink"  version="1.2" baseProfile="tiny">
<title>Qt Svg Document</title>
<desc>Generated with Qt</desc>
<defs>
</defs>
<g fill="none" stroke="black" stroke-width="1" fill-rule="evenodd" stroke-linecap="square" stroke-linejoin="bevel" >

<g fill="#ffffff" fill-opacity="1" stroke="none" transform="matrix(1,0,0,1,0,0)"
font-family="Droid Sans" font-size="10" font-weight="400" font-style="normal" 
>
<path vector-effect="non-scaling-stroke" fill-rule="evenodd" d="M0,0 L193,0 L193,64 L0,64 L0,0"/>
</g>

<g fill="none" stroke="#000000" stroke-opacity="1" stroke-width="1" stroke-linecap="round" stroke-linejoin="round" transform="matrix(1,0,0,1,0,0)"
font-family="Droid Sans" font-size="10" font-weight="400" font-style="normal" 
>
<polyline fill="none" vector-effect="non-scaling-stroke" points="15,39 15,5 " />
<polyline fill="none" vector-effect="non-scaling-stroke" points="173,43 171,42 169,42 167,41 166,41 164,40 162,40 160,39 158,39 156,38 154,38 152,38 150,37 148,37 146,36 144,36 142,35 140,35 138,35 136,34 134,34 132,33 130,33 128,33 126,32 125,32 123,32 121,31 119,31 117,31 115,30 113,30 111,30 109,29 107,29 105,29 103,28 101,28 99,28 97,28 95,27 93,27 91,27 89,26 87,26 85,26 83,26 81,26 79,25 77,25 75,25 73,25 71,25 69,24 67,24 65,24 63,24 61,24 59,24 57,23 55,23 53,23 51,23 49,23 47,23 45,23 43,23 41,23 39,22 37,22 35,22 33,22 31,22 29,22 27,22 25,22 23,22 21,22 19,22 17,22 15,22 " />
<polyline fill="none" vector-effect="non-scaling-stroke" points="178,27 169,59 " />
</g>

<g fill="#000000" fill-opacity="1" stroke="none" transform="matrix(1,0,0,1,0,0)"
font-family="Droid Sans" font-size="10" font-weight="400" font-style="normal" 
>
<path vector-effect="non-scaling-stroke" fill-rule="evenodd" d="M71.5,26 C71.5,26.2761 71.2761,26.5 71,26.5 C70.7239,26.5 70.5,26.2761 70.5,26 C70.5,25.7239 70.7239,25.5 71,25.5 C71.2761,25.5 71.5,25.7239 71.5,26 "/>
</g>

<g fill="none" stroke="#000000" stroke-opacity="1" stroke-width="1" stroke-linecap="round" stroke-linejoin="round" transform="matrix(1,0,0,1,0,0)"
font-family="Droid Sans" font-size="10" font-weight="400" font-style="normal" 
>
<polyline fill="none" vector-effect="non-scaling-stroke" points="76,29 77,28 76,26 76,25 74,25 73,25 72,25 71,26 " />
<polyline fill="none" vector-effect="non-scaling-stroke" points="76,29 69,37 " />
<polyline fill="none" vector-effect="non-scaling-stroke" points="69,37 75,38 " />
<polyline fill="none" vector-effect="non-scaling-stroke" points="81,28 82,27 " />
<polyline fill="none" vector-effect="non-scaling-stroke" points="86,31 87,29 87,28 86,27 85,26 83,26 82,27 " />
<polyline fill="none" vector-effect="non-scaling-stroke" points="86,31 80,39 " />
<polyline fill="none" vector-effect="non-scaling-stroke" points="80,39 86,40 " />
<polyline fill="none" vector-effect="non-scaling-stroke" points="92,29 92,28 " />
<polyline fill="none" vector-effect="non-scaling-stroke" points="97,32 97,31 97,29 96,28 95,27 94,27 92,28 " />
<polyline fill="none" vector-effect="non-scaling-stroke" points="97,32 90,40 " />
<polyline fill="none" vector-effect="non-scaling-stroke" points="90,40 96,41 " />
</g>

<g fill="#000000" fill-opacity="1" stroke="none" transform="matrix(1,0,0,1,0,0)"
font-family="Droid Sans" font-size="10" font-weight="400" font-style="normal" 
>
<path vector-effect="non-scaling-stroke" fill-rule="evenodd" d="M102.5,30 C102.5,30.2761 102.276,30.5 102,30.5 C101.724,30.5 101.5,30.2761 101.5,30 C101.5,29.7239 101.724,29.5 102,29.5 C102.276,29.5 102.5,29.7239 102.5,30 "/>
</g>

<g fill="none" stroke="#000000" stroke-opacity="1" stroke-width="1" stroke-linecap="round" stroke-linejoin="round" transform="matrix(1,0,0,1,0,0)"
font-family="Droid Sans" font-size="10" font-weight="400" font-style="normal" 
>
<polyline fill="none" vector-effect="non-scaling-stroke" points="107,33 108,32 108,31 107,29 106,29 104,29 103,29 102,30 " />
<polyline fill="none" vector-effect="non-scaling-stroke" points="107,33 101,42 " />
<polyline fill="none" vector-effect="non-scaling-stroke" points="101,42 106,42 " />
<polyline fill="none" vector-effect="non-scaling-stroke" points="112,36 115,36 " />
<polyline fill="none" vector-effect="non-scaling-stroke" points="117,39 117,38 116,37 115,36 " />
<polyline fill="none" vector-effect="non-scaling-stroke" points="117,39 117,41 " />
<polyline fill="none" vector-effect="non-scaling-stroke" points="111,40 111,41 112,43 114,43 115,43 116,42 117,41 " />
<polyline fill="none" vector-effect="non-scaling-stroke" points="111,40 112,36 " />
<polyline fill="none" vector-effect="non-scaling-stroke" points="117,30 115,31 114,32 112,34 112,35 112,36 " />
</g>
</g>
</svg>
