<?xml version="1.0" encoding="UTF-8" standalone="no"?>
<svg width="61.7361mm" height="21.8722mm"
 viewBox="0 0 175 62"
 xmlns="http://www.w3.org/2000/svg" xmlns:xlink="http://www.w3.org/1999/xlink"  version="1.2" baseProfile="tiny">
<title>Qt Svg Document</title>
<desc>Generated with Qt</desc>
<defs>
</defs>
<g fill="none" stroke="black" stroke-width="1" fill-rule="evenodd" stroke-linecap="square" stroke-linejoin="bevel" >

<g fill="#ffffff" fill-opacity="1" stroke="none" transform="matrix(1,0,0,1,0,0)"
font-family="Droid Sans" font-size="10" font-weight="400" font-style="normal" 
>
<path vector-effect="non-scaling-stroke" fill-rule="evenodd" d="M0,0 L175,0 L175,62 L0,62 L0,0"/>
</g>

<g fill="none" stroke="#000000" stroke-opacity="1" stroke-width="1" stroke-linecap="round" stroke-linejoin="round" transform="matrix(1,0,0,1,0,0)"
font-family="Droid Sans" font-size="10" font-weight="400" font-style="normal" 
>
<polyline fill="none" vector-effect="non-scaling-stroke" points="13,39 13,5 " />
<polyline fill="none" vector-effect="non-scaling-stroke" points="156,41 155,40 153,40 151,39 149,39 147,38 145,38 143,37 141,37 139,37 137,36 135,36 133,35 131,35 129,34 127,34 125,33 123,33 121,33 119,32 117,32 115,32 114,31 112,31 110,30 108,30 106,30 104,29 102,29 100,29 98,29 96,28 94,28 92,28 90,27 88,27 86,27 84,27 82,26 80,26 78,26 76,26 74,25 72,25 70,25 68,25 66,25 64,24 62,24 60,24 58,24 56,24 54,24 52,23 50,23 48,23 46,23 44,23 42,23 40,23 38,23 36,22 34,22 32,22 30,22 28,22 26,22 24,22 22,22 20,22 18,22 16,22 14,22 13,22 " />
<polyline fill="none" vector-effect="non-scaling-stroke" points="161,25 152,57 " />
<polyline fill="none" vector-effect="non-scaling-stroke" points="61,26 62,25 " />
<polyline fill="none" vector-effect="non-scaling-stroke" points="67,29 67,27 67,26 66,25 65,24 63,24 62,25 " />
<polyline fill="none" vector-effect="non-scaling-stroke" points="67,29 60,37 " />
<polyline fill="none" vector-effect="non-scaling-stroke" points="60,37 66,38 " />
</g>

<g fill="#000000" fill-opacity="1" stroke="none" transform="matrix(1,0,0,1,0,0)"
font-family="Droid Sans" font-size="10" font-weight="400" font-style="normal" 
>
<path vector-effect="non-scaling-stroke" fill-rule="evenodd" d="M72.5,27 C72.5,27.2761 72.2761,27.5 72,27.5 C71.7239,27.5 71.5,27.2761 71.5,27 C71.5,26.7239 71.7239,26.5 72,26.5 C72.2761,26.5 72.5,26.7239 72.5,27 "/>
</g>

<g fill="none" stroke="#000000" stroke-opacity="1" stroke-width="1" stroke-linecap="round" stroke-linejoin="round" transform="matrix(1,0,0,1,0,0)"
font-family="Droid Sans" font-size="10" font-weight="400" font-style="normal" 
>
<polyline fill="none" vector-effect="non-scaling-stroke" points="77,30 78,29 77,27 77,26 75,25 74,25 72,26 72,27 " />
<polyline fill="none" vector-effect="non-scaling-stroke" points="77,30 70,38 " />
<polyline fill="none" vector-effect="non-scaling-stroke" points="70,38 76,39 " />
<polyline fill="none" vector-effect="non-scaling-stroke" points="82,29 83,28 " />
<polyline fill="none" vector-effect="non-scaling-stroke" points="87,32 88,30 88,29 87,27 86,27 84,27 83,28 " />
<polyline fill="none" vector-effect="non-scaling-stroke" points="87,32 81,40 " />
<polyline fill="none" vector-effect="non-scaling-stroke" points="81,40 87,40 " />
<polyline fill="none" vector-effect="non-scaling-stroke" points="92,30 93,29 " />
<polyline fill="none" vector-effect="non-scaling-stroke" points="98,33 98,32 98,30 97,29 96,28 95,28 93,29 " />
<polyline fill="none" vector-effect="non-scaling-stroke" points="98,33 91,41 " />
<polyline fill="none" vector-effect="non-scaling-stroke" points="91,41 97,42 " />
<polyline fill="none" vector-effect="non-scaling-stroke" points="109,30 103,29 " />
<polyline fill="none" vector-effect="non-scaling-stroke" points="103,29 102,35 " />
<polyline fill="none" vector-effect="non-scaling-stroke" points="102,35 105,35 " />
<polyline fill="none" vector-effect="non-scaling-stroke" points="108,39 108,37 107,36 106,35 105,35 " />
<polyline fill="none" vector-effect="non-scaling-stroke" points="108,39 108,40 " />
<polyline fill="none" vector-effect="non-scaling-stroke" points="104,43 106,43 107,42 108,40 " />
<polyline fill="none" vector-effect="non-scaling-stroke" points="104,43 101,42 " />
</g>
</g>
</svg>
