<?xml version="1.0" encoding="UTF-8" standalone="no"?>
<svg width="72.3194mm" height="31.3972mm"
 viewBox="0 0 205 89"
 xmlns="http://www.w3.org/2000/svg" xmlns:xlink="http://www.w3.org/1999/xlink"  version="1.2" baseProfile="tiny">
<title>Qt Svg Document</title>
<desc>Generated with Qt</desc>
<defs>
</defs>
<g fill="none" stroke="black" stroke-width="1" fill-rule="evenodd" stroke-linecap="square" stroke-linejoin="bevel" >

<g fill="#ffffff" fill-opacity="1" stroke="none" transform="matrix(1,0,0,1,0,0)"
font-family="Droid Sans" font-size="10" font-weight="400" font-style="normal" 
>
<path vector-effect="non-scaling-stroke" fill-rule="evenodd" d="M0,0 L205,0 L205,89 L0,89 L0,0"/>
</g>

<g fill="none" stroke="#000000" stroke-opacity="1" stroke-width="1" stroke-linecap="round" stroke-linejoin="round" transform="matrix(1,0,0,1,0,0)"
font-family="Droid Sans" font-size="10" font-weight="400" font-style="normal" 
>
<polyline fill="none" vector-effect="non-scaling-stroke" points="12,41 12,5 " />
<polyline fill="none" vector-effect="non-scaling-stroke" points="184,69 182,68 180,67 179,66 177,65 175,64 173,63 172,62 170,61 168,60 166,60 164,59 163,58 161,57 159,56 157,55 155,54 154,54 152,53 150,52 148,51 146,50 144,50 143,49 141,48 139,47 137,47 135,46 133,45 131,44 130,44 128,43 126,42 124,42 122,41 120,40 118,40 116,39 114,39 112,38 111,37 109,37 107,36 105,36 103,35 101,35 99,34 97,34 95,33 93,33 91,32 89,32 87,31 85,31 83,31 81,30 80,30 78,29 76,29 74,29 72,28 70,28 68,28 66,27 64,27 62,27 60,26 58,26 56,26 54,26 52,25 50,25 48,25 46,25 44,24 42,24 40,24 38,24 36,24 34,24 32,24 30,23 28,23 26,23 24,23 22,23 20,23 18,23 16,23 14,23 12,23 " />
<polyline fill="none" vector-effect="non-scaling-stroke" points="193,54 175,84 " />
<polyline fill="none" vector-effect="non-scaling-stroke" points="78,31 78,30 " />
<polyline fill="none" vector-effect="non-scaling-stroke" points="83,35 83,33 83,32 83,30 82,30 80,29 79,30 78,30 " />
<polyline fill="none" vector-effect="non-scaling-stroke" points="83,35 75,42 " />
<polyline fill="none" vector-effect="non-scaling-stroke" points="75,42 81,44 " />
<polyline fill="none" vector-effect="non-scaling-stroke" points="88,34 89,33 " />
<polyline fill="none" vector-effect="non-scaling-stroke" points="93,38 94,36 94,35 93,33 92,32 91,32 89,33 " />
<polyline fill="none" vector-effect="non-scaling-stroke" points="93,38 85,45 " />
<polyline fill="none" vector-effect="non-scaling-stroke" points="85,45 91,47 " />
<polyline fill="none" vector-effect="non-scaling-stroke" points="99,37 99,36 " />
<polyline fill="none" vector-effect="non-scaling-stroke" points="104,40 105,39 105,37 104,36 103,35 101,35 100,36 99,36 " />
<polyline fill="none" vector-effect="non-scaling-stroke" points="104,40 96,48 " />
<polyline fill="none" vector-effect="non-scaling-stroke" points="96,48 102,50 " />
<polyline fill="none" vector-effect="non-scaling-stroke" points="109,39 110,39 " />
<polyline fill="none" vector-effect="non-scaling-stroke" points="114,43 115,42 115,40 115,39 113,38 112,38 110,38 110,39 " />
<polyline fill="none" vector-effect="non-scaling-stroke" points="114,43 106,51 " />
<polyline fill="none" vector-effect="non-scaling-stroke" points="106,51 112,52 " />
<polyline fill="none" vector-effect="non-scaling-stroke" points="120,43 124,41 " />
<polyline fill="none" vector-effect="non-scaling-stroke" points="124,41 120,54 " />
</g>
</g>
</svg>
