<?xml version="1.0" encoding="UTF-8" standalone="no"?>
<svg width="20.8139mm" height="14.8167mm"
 viewBox="0 0 59 42"
 xmlns="http://www.w3.org/2000/svg" xmlns:xlink="http://www.w3.org/1999/xlink"  version="1.2" baseProfile="tiny">
<title>Qt Svg Document</title>
<desc>Generated with Qt</desc>
<defs>
</defs>
<g fill="none" stroke="black" stroke-width="1" fill-rule="evenodd" stroke-linecap="square" stroke-linejoin="bevel" >

<g fill="#ffffff" fill-opacity="1" stroke="none" transform="matrix(1,0,0,1,0,0)"
font-family="Droid Sans" font-size="10" font-weight="400" font-style="normal" 
>
<path vector-effect="non-scaling-stroke" fill-rule="evenodd" d="M0,0 L59,0 L59,42 L0,42 L0,0"/>
</g>

<g fill="none" stroke="#000000" stroke-opacity="1" stroke-width="1" stroke-linecap="round" stroke-linejoin="round" transform="matrix(1,0,0,1,0,0)"
font-family="Droid Sans" font-size="10" font-weight="400" font-style="normal" 
>
<polyline fill="none" vector-effect="non-scaling-stroke" points="12,36 12,6 " />
<polyline fill="none" vector-effect="non-scaling-stroke" points="48,23 46,23 44,22 42,22 40,22 38,22 36,22 34,22 32,22 30,21 28,21 26,21 24,21 22,21 20,21 18,21 16,21 14,21 12,21 " />
<polyline fill="none" vector-effect="non-scaling-stroke" points="50,8 46,38 " />
</g>

<g fill="#000000" fill-opacity="1" stroke="none" transform="matrix(1,0,0,1,0,0)"
font-family="Droid Sans" font-size="10" font-weight="400" font-style="normal" 
>
<path vector-effect="non-scaling-stroke" fill-rule="evenodd" d="M8.5,22 C8.5,22.2761 8.27614,22.5 8,22.5 C7.72386,22.5 7.5,22.2761 7.5,22 C7.5,21.7239 7.72386,21.5 8,21.5 C8.27614,21.5 8.5,21.7239 8.5,22 "/>
</g>

<g fill="none" stroke="#000000" stroke-opacity="1" stroke-width="1" stroke-linecap="round" stroke-linejoin="round" transform="matrix(1,0,0,1,0,0)"
font-family="Droid Sans" font-size="10" font-weight="400" font-style="normal" 
>
<polyline fill="none" vector-effect="non-scaling-stroke" points="13,25 13,23 13,22 12,21 11,20 10,21 8,21 8,22 " />
<polyline fill="none" vector-effect="non-scaling-stroke" points="13,25 7,32 " />
<polyline fill="none" vector-effect="non-scaling-stroke" points="7,32 13,33 " />
<polyline fill="none" vector-effect="non-scaling-stroke" points="17,23 18,22 " />
<polyline fill="none" vector-effect="non-scaling-stroke" points="22,25 23,24 22,23 21,21 20,21 19,21 18,22 " />
<polyline fill="none" vector-effect="non-scaling-stroke" points="22,25 17,33 " />
<polyline fill="none" vector-effect="non-scaling-stroke" points="17,33 22,33 " />
</g>

<g fill="#000000" fill-opacity="1" stroke="none" transform="matrix(1,0,0,1,0,0)"
font-family="Droid Sans" font-size="10" font-weight="400" font-style="normal" 
>
<path vector-effect="non-scaling-stroke" fill-rule="evenodd" d="M27.5,23 C27.5,23.2761 27.2761,23.5 27,23.5 C26.7239,23.5 26.5,23.2761 26.5,23 C26.5,22.7239 26.7239,22.5 27,22.5 C27.2761,22.5 27.5,22.7239 27.5,23 "/>
</g>

<g fill="none" stroke="#000000" stroke-opacity="1" stroke-width="1" stroke-linecap="round" stroke-linejoin="round" transform="matrix(1,0,0,1,0,0)"
font-family="Droid Sans" font-size="10" font-weight="400" font-style="normal" 
>
<polyline fill="none" vector-effect="non-scaling-stroke" points="31,26 32,24 32,23 31,22 30,21 28,22 27,22 27,23 " />
<polyline fill="none" vector-effect="non-scaling-stroke" points="31,26 26,33 " />
<polyline fill="none" vector-effect="non-scaling-stroke" points="26,33 31,34 " />
<polyline fill="none" vector-effect="non-scaling-stroke" points="36,22 39,22 " />
<polyline fill="none" vector-effect="non-scaling-stroke" points="38,27 40,27 41,26 41,25 41,24 40,23 39,22 " />
<polyline fill="none" vector-effect="non-scaling-stroke" points="37,27 38,27 " />
<polyline fill="none" vector-effect="non-scaling-stroke" points="41,30 41,29 40,28 39,27 38,27 " />
<polyline fill="none" vector-effect="non-scaling-stroke" points="41,30 41,31 " />
<polyline fill="none" vector-effect="non-scaling-stroke" points="38,34 39,34 40,33 41,32 41,31 " />
<polyline fill="none" vector-effect="non-scaling-stroke" points="38,34 35,34 " />
<polyline fill="none" vector-effect="non-scaling-stroke" points="48,22 45,32 " />
<polyline fill="none" vector-effect="non-scaling-stroke" points="45,32 52,32 " />
<polyline fill="none" vector-effect="non-scaling-stroke" points="50,29 50,35 " />
</g>
</g>
</svg>
