<?xml version="1.0" encoding="UTF-8" standalone="no"?>
<svg width="55.7389mm" height="20.8139mm"
 viewBox="0 0 158 59"
 xmlns="http://www.w3.org/2000/svg" xmlns:xlink="http://www.w3.org/1999/xlink"  version="1.2" baseProfile="tiny">
<title>Qt Svg Document</title>
<desc>Generated with Qt</desc>
<defs>
</defs>
<g fill="none" stroke="black" stroke-width="1" fill-rule="evenodd" stroke-linecap="square" stroke-linejoin="bevel" >

<g fill="#ffffff" fill-opacity="1" stroke="none" transform="matrix(1,0,0,1,0,0)"
font-family="Droid Sans" font-size="10" font-weight="400" font-style="normal" 
>
<path vector-effect="non-scaling-stroke" fill-rule="evenodd" d="M0,0 L158,0 L158,59 L0,59 L0,0"/>
</g>

<g fill="none" stroke="#000000" stroke-opacity="1" stroke-width="1" stroke-linecap="round" stroke-linejoin="round" transform="matrix(1,0,0,1,0,0)"
font-family="Droid Sans" font-size="10" font-weight="400" font-style="normal" 
>
<polyline fill="none" vector-effect="non-scaling-stroke" points="13,38 13,6 " />
<polyline fill="none" vector-effect="non-scaling-stroke" points="139,39 137,38 135,38 133,37 131,37 129,36 127,36 125,35 124,35 122,34 120,34 118,33 116,33 114,33 112,32 110,32 108,31 106,31 104,31 102,30 100,30 98,29 96,29 94,29 92,28 90,28 88,28 86,28 84,27 82,27 80,27 78,26 76,26 74,26 72,26 70,25 68,25 66,25 64,25 62,25 60,24 58,24 56,24 54,24 52,24 50,23 48,23 46,23 44,23 42,23 40,23 38,23 36,23 34,22 32,22 30,22 28,22 26,22 24,22 22,22 20,22 18,22 16,22 14,22 13,22 " />
<polyline fill="none" vector-effect="non-scaling-stroke" points="143,23 135,55 " />
<polyline fill="none" vector-effect="non-scaling-stroke" points="53,25 54,25 " />
<polyline fill="none" vector-effect="non-scaling-stroke" points="58,28 59,27 59,25 58,24 56,24 55,24 54,24 54,25 " />
<polyline fill="none" vector-effect="non-scaling-stroke" points="58,28 52,36 " />
<polyline fill="none" vector-effect="non-scaling-stroke" points="52,36 57,37 " />
<polyline fill="none" vector-effect="non-scaling-stroke" points="63,27 64,26 " />
<polyline fill="none" vector-effect="non-scaling-stroke" points="68,30 69,28 69,27 68,26 67,25 65,25 64,26 " />
<polyline fill="none" vector-effect="non-scaling-stroke" points="68,30 62,38 " />
<polyline fill="none" vector-effect="non-scaling-stroke" points="62,38 68,38 " />
<polyline fill="none" vector-effect="non-scaling-stroke" points="73,28 74,27 " />
<polyline fill="none" vector-effect="non-scaling-stroke" points="79,31 79,30 79,28 78,27 77,26 75,26 74,27 " />
<polyline fill="none" vector-effect="non-scaling-stroke" points="79,31 72,39 " />
<polyline fill="none" vector-effect="non-scaling-stroke" points="72,39 78,40 " />
<polyline fill="none" vector-effect="non-scaling-stroke" points="84,27 87,28 " />
<polyline fill="none" vector-effect="non-scaling-stroke" points="86,33 87,33 89,32 89,31 89,30 88,28 87,28 " />
<polyline fill="none" vector-effect="non-scaling-stroke" points="85,33 86,33 " />
<polyline fill="none" vector-effect="non-scaling-stroke" points="88,37 88,35 87,34 86,33 " />
<polyline fill="none" vector-effect="non-scaling-stroke" points="88,37 88,38 " />
<polyline fill="none" vector-effect="non-scaling-stroke" points="85,41 86,40 88,40 88,38 " />
<polyline fill="none" vector-effect="non-scaling-stroke" points="85,41 82,40 " />
<polyline fill="none" vector-effect="non-scaling-stroke" points="100,29 94,28 " />
<polyline fill="none" vector-effect="non-scaling-stroke" points="94,28 93,34 " />
<polyline fill="none" vector-effect="non-scaling-stroke" points="93,34 96,35 " />
<polyline fill="none" vector-effect="non-scaling-stroke" points="99,38 98,37 98,35 96,35 " />
<polyline fill="none" vector-effect="non-scaling-stroke" points="99,38 98,39 " />
<polyline fill="none" vector-effect="non-scaling-stroke" points="95,42 97,42 98,41 98,40 98,39 " />
<polyline fill="none" vector-effect="non-scaling-stroke" points="95,42 92,42 " />
</g>
</g>
</svg>
