<?xml version="1.0" encoding="UTF-8" standalone="no"?>
<svg width="20.1083mm" height="14.8167mm"
 viewBox="0 0 57 42"
 xmlns="http://www.w3.org/2000/svg" xmlns:xlink="http://www.w3.org/1999/xlink"  version="1.2" baseProfile="tiny">
<title>Qt Svg Document</title>
<desc>Generated with Qt</desc>
<defs>
</defs>
<g fill="none" stroke="black" stroke-width="1" fill-rule="evenodd" stroke-linecap="square" stroke-linejoin="bevel" >

<g fill="#ffffff" fill-opacity="1" stroke="none" transform="matrix(1,0,0,1,0,0)"
font-family="Droid Sans" font-size="10" font-weight="400" font-style="normal" 
>
<path vector-effect="non-scaling-stroke" fill-rule="evenodd" d="M0,0 L57,0 L57,42 L0,42 L0,0"/>
</g>

<g fill="none" stroke="#000000" stroke-opacity="1" stroke-width="1" stroke-linecap="round" stroke-linejoin="round" transform="matrix(1,0,0,1,0,0)"
font-family="Droid Sans" font-size="10" font-weight="400" font-style="normal" 
>
<polyline fill="none" vector-effect="non-scaling-stroke" points="13,36 13,6 " />
<polyline fill="none" vector-effect="non-scaling-stroke" points="44,23 42,22 40,22 38,22 36,22 34,22 32,22 30,21 28,21 26,21 24,21 22,21 20,21 18,21 16,21 14,21 13,21 " />
<polyline fill="none" vector-effect="non-scaling-stroke" points="46,7 42,38 " />
</g>

<g fill="#000000" fill-opacity="1" stroke="none" transform="matrix(1,0,0,1,0,0)"
font-family="Droid Sans" font-size="10" font-weight="400" font-style="normal" 
>
<path vector-effect="non-scaling-stroke" fill-rule="evenodd" d="M7.5,22 C7.5,22.2761 7.27614,22.5 7,22.5 C6.72386,22.5 6.5,22.2761 6.5,22 C6.5,21.7239 6.72386,21.5 7,21.5 C7.27614,21.5 7.5,21.7239 7.5,22 "/>
</g>

<g fill="none" stroke="#000000" stroke-opacity="1" stroke-width="1" stroke-linecap="round" stroke-linejoin="round" transform="matrix(1,0,0,1,0,0)"
font-family="Droid Sans" font-size="10" font-weight="400" font-style="normal" 
>
<polyline fill="none" vector-effect="non-scaling-stroke" points="12,25 12,23 12,22 11,21 10,20 9,21 7,21 7,22 " />
<polyline fill="none" vector-effect="non-scaling-stroke" points="12,25 6,32 " />
<polyline fill="none" vector-effect="non-scaling-stroke" points="6,32 12,33 " />
<polyline fill="none" vector-effect="non-scaling-stroke" points="16,23 17,22 " />
<polyline fill="none" vector-effect="non-scaling-stroke" points="21,25 22,24 21,23 21,21 19,21 18,21 17,22 " />
<polyline fill="none" vector-effect="non-scaling-stroke" points="21,25 16,33 " />
<polyline fill="none" vector-effect="non-scaling-stroke" points="16,33 21,33 " />
</g>

<g fill="#000000" fill-opacity="1" stroke="none" transform="matrix(1,0,0,1,0,0)"
font-family="Droid Sans" font-size="10" font-weight="400" font-style="normal" 
>
<path vector-effect="non-scaling-stroke" fill-rule="evenodd" d="M26.5,23 C26.5,23.2761 26.2761,23.5 26,23.5 C25.7239,23.5 25.5,23.2761 25.5,23 C25.5,22.7239 25.7239,22.5 26,22.5 C26.2761,22.5 26.5,22.7239 26.5,23 "/>
</g>

<g fill="none" stroke="#000000" stroke-opacity="1" stroke-width="1" stroke-linecap="round" stroke-linejoin="round" transform="matrix(1,0,0,1,0,0)"
font-family="Droid Sans" font-size="10" font-weight="400" font-style="normal" 
>
<polyline fill="none" vector-effect="non-scaling-stroke" points="31,26 31,24 31,23 30,22 29,21 27,22 26,22 26,23 " />
<polyline fill="none" vector-effect="non-scaling-stroke" points="31,26 25,33 " />
<polyline fill="none" vector-effect="non-scaling-stroke" points="25,33 31,34 " />
<polyline fill="none" vector-effect="non-scaling-stroke" points="35,22 38,22 " />
<polyline fill="none" vector-effect="non-scaling-stroke" points="38,27 39,27 40,26 41,25 40,24 40,23 38,22 " />
<polyline fill="none" vector-effect="non-scaling-stroke" points="36,27 38,27 " />
<polyline fill="none" vector-effect="non-scaling-stroke" points="40,30 40,29 39,28 38,27 " />
<polyline fill="none" vector-effect="non-scaling-stroke" points="40,30 40,32 " />
<polyline fill="none" vector-effect="non-scaling-stroke" points="37,34 39,34 40,33 40,32 " />
<polyline fill="none" vector-effect="non-scaling-stroke" points="37,34 35,34 " />
</g>

<g fill="#000000" fill-opacity="1" stroke="none" transform="matrix(1,0,0,1,0,0)"
font-family="Droid Sans" font-size="10" font-weight="400" font-style="normal" 
>
<path vector-effect="non-scaling-stroke" fill-rule="evenodd" d="M45.5,24 C45.5,24.2761 45.2761,24.5 45,24.5 C44.7239,24.5 44.5,24.2761 44.5,24 C44.5,23.7239 44.7239,23.5 45,23.5 C45.2761,23.5 45.5,23.7239 45.5,24 "/>
</g>

<g fill="none" stroke="#000000" stroke-opacity="1" stroke-width="1" stroke-linecap="round" stroke-linejoin="round" transform="matrix(1,0,0,1,0,0)"
font-family="Droid Sans" font-size="10" font-weight="400" font-style="normal" 
>
<polyline fill="none" vector-effect="non-scaling-stroke" points="50,27 50,25 50,24 49,23 48,22 46,23 45,23 45,24 " />
<polyline fill="none" vector-effect="non-scaling-stroke" points="50,27 44,34 " />
<polyline fill="none" vector-effect="non-scaling-stroke" points="44,34 50,35 " />
</g>
</g>
</svg>
