<?xml version="1.0" encoding="UTF-8" standalone="no"?>
<svg width="68.4389mm" height="27.5167mm"
 viewBox="0 0 194 78"
 xmlns="http://www.w3.org/2000/svg" xmlns:xlink="http://www.w3.org/1999/xlink"  version="1.2" baseProfile="tiny">
<title>Qt Svg Document</title>
<desc>Generated with Qt</desc>
<defs>
</defs>
<g fill="none" stroke="black" stroke-width="1" fill-rule="evenodd" stroke-linecap="square" stroke-linejoin="bevel" >

<g fill="#ffffff" fill-opacity="1" stroke="none" transform="matrix(1,0,0,1,0,0)"
font-family="Droid Sans" font-size="10" font-weight="400" font-style="normal" 
>
<path vector-effect="non-scaling-stroke" fill-rule="evenodd" d="M0,0 L194,0 L194,78 L0,78 L0,0"/>
</g>

<g fill="none" stroke="#000000" stroke-opacity="1" stroke-width="1" stroke-linecap="round" stroke-linejoin="round" transform="matrix(1,0,0,1,0,0)"
font-family="Droid Sans" font-size="10" font-weight="400" font-style="normal" 
>
<polyline fill="none" vector-effect="non-scaling-stroke" points="12,40 12,6 " />
<polyline fill="none" vector-effect="non-scaling-stroke" points="174,58 173,57 171,56 169,55 167,54 165,54 163,53 162,52 160,51 158,51 156,50 154,49 152,48 150,48 148,47 147,46 145,46 143,45 141,44 139,44 137,43 135,42 133,42 131,41 129,41 128,40 126,40 124,39 122,38 120,38 118,37 116,37 114,36 112,36 110,35 108,35 106,34 104,34 102,33 101,33 99,32 97,32 95,32 93,31 91,31 89,30 87,30 85,30 83,29 81,29 79,29 77,28 75,28 73,28 71,27 69,27 67,27 65,27 63,26 61,26 59,26 57,26 55,25 53,25 51,25 49,25 47,25 45,24 43,24 41,24 39,24 37,24 35,24 33,24 31,23 29,23 27,23 25,23 23,23 21,23 19,23 17,23 15,23 13,23 12,23 " />
<polyline fill="none" vector-effect="non-scaling-stroke" points="182,42 167,74 " />
<polyline fill="none" vector-effect="non-scaling-stroke" points="70,29 71,28 " />
<polyline fill="none" vector-effect="non-scaling-stroke" points="75,32 76,31 76,29 75,28 74,27 72,27 71,28 " />
<polyline fill="none" vector-effect="non-scaling-stroke" points="75,32 68,40 " />
<polyline fill="none" vector-effect="non-scaling-stroke" points="68,40 74,42 " />
<polyline fill="none" vector-effect="non-scaling-stroke" points="81,31 81,30 " />
<polyline fill="none" vector-effect="non-scaling-stroke" points="86,35 87,33 87,32 86,30 85,30 83,29 82,30 81,30 " />
<polyline fill="none" vector-effect="non-scaling-stroke" points="86,35 78,43 " />
<polyline fill="none" vector-effect="non-scaling-stroke" points="78,43 84,44 " />
<polyline fill="none" vector-effect="non-scaling-stroke" points="91,33 92,33 " />
<polyline fill="none" vector-effect="non-scaling-stroke" points="97,37 97,35 97,34 97,33 95,32 94,32 92,32 92,33 " />
<polyline fill="none" vector-effect="non-scaling-stroke" points="97,37 89,45 " />
<polyline fill="none" vector-effect="non-scaling-stroke" points="89,45 95,46 " />
<polyline fill="none" vector-effect="non-scaling-stroke" points="103,33 106,34 " />
<polyline fill="none" vector-effect="non-scaling-stroke" points="104,40 106,40 107,39 108,38 108,36 107,35 106,34 " />
<polyline fill="none" vector-effect="non-scaling-stroke" points="103,40 104,40 " />
<polyline fill="none" vector-effect="non-scaling-stroke" points="107,44 107,42 106,41 105,40 104,40 " />
<polyline fill="none" vector-effect="non-scaling-stroke" points="107,44 106,45 " />
<polyline fill="none" vector-effect="non-scaling-stroke" points="103,48 104,48 106,47 106,45 " />
<polyline fill="none" vector-effect="non-scaling-stroke" points="103,48 100,47 " />
<polyline fill="none" vector-effect="non-scaling-stroke" points="113,36 116,36 " />
<polyline fill="none" vector-effect="non-scaling-stroke" points="115,42 117,42 118,41 119,40 119,39 118,37 117,36 116,36 " />
<polyline fill="none" vector-effect="non-scaling-stroke" points="113,42 115,42 " />
<polyline fill="none" vector-effect="non-scaling-stroke" points="117,46 117,44 117,43 115,42 " />
<polyline fill="none" vector-effect="non-scaling-stroke" points="117,46 117,48 " />
<polyline fill="none" vector-effect="non-scaling-stroke" points="113,50 115,50 116,49 117,48 " />
<polyline fill="none" vector-effect="non-scaling-stroke" points="113,50 110,49 " />
</g>
</g>
</svg>
