<?xml version="1.0" encoding="UTF-8" standalone="no"?>
<svg width="58.5611mm" height="25.4mm"
 viewBox="0 0 166 72"
 xmlns="http://www.w3.org/2000/svg" xmlns:xlink="http://www.w3.org/1999/xlink"  version="1.2" baseProfile="tiny">
<title>Qt Svg Document</title>
<desc>Generated with Qt</desc>
<defs>
</defs>
<g fill="none" stroke="black" stroke-width="1" fill-rule="evenodd" stroke-linecap="square" stroke-linejoin="bevel" >

<g fill="#ffffff" fill-opacity="1" stroke="none" transform="matrix(1,0,0,1,0,0)"
font-family="Droid Sans" font-size="10" font-weight="400" font-style="normal" 
>
<path vector-effect="non-scaling-stroke" fill-rule="evenodd" d="M0,0 L166,0 L166,72 L0,72 L0,0"/>
</g>

<g fill="none" stroke="#000000" stroke-opacity="1" stroke-width="1" stroke-linecap="round" stroke-linejoin="round" transform="matrix(1,0,0,1,0,0)"
font-family="Droid Sans" font-size="10" font-weight="400" font-style="normal" 
>
<polyline fill="none" vector-effect="non-scaling-stroke" points="11,40 11,6 " />
<polyline fill="none" vector-effect="non-scaling-stroke" points="147,52 146,51 144,50 142,50 140,49 138,48 136,47 135,47 133,46 131,45 129,44 127,44 125,43 123,42 121,42 120,41 118,40 116,40 114,39 112,39 110,38 108,37 106,37 104,36 102,36 100,35 99,35 97,34 95,34 93,33 91,33 89,32 87,32 85,31 83,31 81,30 79,30 77,30 75,29 73,29 71,28 69,28 67,28 65,27 63,27 61,27 59,27 57,26 55,26 53,26 51,25 49,25 47,25 45,25 43,25 42,24 40,24 38,24 36,24 34,24 32,24 30,24 28,23 26,23 24,23 22,23 20,23 18,23 16,23 14,23 12,23 11,23 " />
<polyline fill="none" vector-effect="non-scaling-stroke" points="154,36 140,68 " />
<polyline fill="none" vector-effect="non-scaling-stroke" points="58,28 58,27 " />
<polyline fill="none" vector-effect="non-scaling-stroke" points="63,31 64,30 64,28 63,27 62,26 60,26 59,27 58,27 " />
<polyline fill="none" vector-effect="non-scaling-stroke" points="63,31 55,39 " />
<polyline fill="none" vector-effect="non-scaling-stroke" points="55,39 61,40 " />
<polyline fill="none" vector-effect="non-scaling-stroke" points="68,30 69,29 " />
<polyline fill="none" vector-effect="non-scaling-stroke" points="73,33 74,32 74,31 73,29 72,28 71,28 69,29 " />
<polyline fill="none" vector-effect="non-scaling-stroke" points="73,33 66,41 " />
<polyline fill="none" vector-effect="non-scaling-stroke" points="66,41 72,43 " />
</g>

<g fill="#000000" fill-opacity="1" stroke="none" transform="matrix(1,0,0,1,0,0)"
font-family="Droid Sans" font-size="10" font-weight="400" font-style="normal" 
>
<path vector-effect="non-scaling-stroke" fill-rule="evenodd" d="M79.5,32 C79.5,32.2761 79.2761,32.5 79,32.5 C78.7239,32.5 78.5,32.2761 78.5,32 C78.5,31.7239 78.7239,31.5 79,31.5 C79.2761,31.5 79.5,31.7239 79.5,32 "/>
</g>

<g fill="none" stroke="#000000" stroke-opacity="1" stroke-width="1" stroke-linecap="round" stroke-linejoin="round" transform="matrix(1,0,0,1,0,0)"
font-family="Droid Sans" font-size="10" font-weight="400" font-style="normal" 
>
<polyline fill="none" vector-effect="non-scaling-stroke" points="84,36 85,34 85,33 84,32 83,31 81,31 80,31 79,32 " />
<polyline fill="none" vector-effect="non-scaling-stroke" points="84,36 76,44 " />
<polyline fill="none" vector-effect="non-scaling-stroke" points="76,44 82,45 " />
<polyline fill="none" vector-effect="non-scaling-stroke" points="90,32 93,33 " />
<polyline fill="none" vector-effect="non-scaling-stroke" points="91,39 93,39 94,38 95,37 95,35 94,34 93,33 " />
<polyline fill="none" vector-effect="non-scaling-stroke" points="90,39 91,39 " />
<polyline fill="none" vector-effect="non-scaling-stroke" points="94,43 94,41 93,40 92,39 91,39 " />
<polyline fill="none" vector-effect="non-scaling-stroke" points="94,43 94,44 " />
<polyline fill="none" vector-effect="non-scaling-stroke" points="90,46 91,46 93,46 93,44 94,44 " />
<polyline fill="none" vector-effect="non-scaling-stroke" points="90,46 87,46 " />
<polyline fill="none" vector-effect="non-scaling-stroke" points="100,37 103,35 " />
<polyline fill="none" vector-effect="non-scaling-stroke" points="103,35 100,49 " />
</g>
</g>
</svg>
